<svg width="1024" height="768" version="1.1" xmlns="http://www.w3.org/2000/svg" desc="Created with imagetracer.js version 1.2.6" ><path fill="rgb(0,0,0)" stroke="rgb(0,0,0)" stroke-width="1" opacity="0" d="M 0 0 L 1024 0 L 1024 768 L 0 768 L 0 0 Z M 222 207 L 222 214 L 215 214 L 215 221 L 208 221 L 208 228 L 201 228 L 201 242 L 208 242 L 208 243 L 208 284 L 210 285 L 210 348 L 218 348 L 219 350 L 219 365 L 236 365 L 236 375 L 316 375 L 316 375 L 316 368 L 324 368 L 324 359 L 332 359 L 332 349 L 331 348 L 331 315 L 330 314 L 330 312 L 324 312 Q 326 306 323 304 L 316 304 L 316 299 Q 322 301 324 298 L 324 291 L 330 291 L 331 290 L 331 246 Q 329 242 324 244 Q 326 238 323 236 Q 313 239 316 230 L 315 228 L 297 227 Q 299 221 296 219 L 265 219 L 264 214 L 257 214 L 257 208 L 257 207 L 222 207 Z M 761 214 L 761 219 L 715 219 L 714 220 L 714 227 L 706 227 L 706 235 L 705 236 L 698 236 L 697 237 L 697 348 L 705 348 L 706 350 L 706 357 L 714 357 L 714 364 L 716 365 L 723 366 L 722 366 L 723 368 L 730 368 L 730 375 L 751 375 L 751 351 Q 758 353 760 349 L 760 342 L 765 342 L 765 363 L 766 365 L 782 366 L 781 367 L 781 375 L 802 375 L 802 368 L 810 368 L 810 359 L 819 359 L 820 358 L 820 247 L 819 246 L 819 244 L 810 244 L 810 236 L 803 236 L 803 222 L 803 221 L 796 221 L 796 214 L 761 214 Z M 817 214 L 817 221 L 810 221 L 810 228 L 817 228 L 817 235 L 824 235 L 824 228 L 831 228 L 831 221 L 824 221 L 824 214 L 817 214 Z M 341 219 L 341 227 L 333 227 L 332 228 L 332 348 L 340 348 L 341 350 L 341 357 L 349 357 L 349 365 L 358 365 L 358 368 L 365 368 L 365 375 L 437 375 L 437 375 L 437 368 L 445 368 L 445 359 L 454 359 L 454 350 L 453 348 L 455 348 L 462 348 L 462 364 L 464 365 L 479 366 L 478 367 L 478 375 L 559 375 L 559 375 L 559 368 L 567 368 L 567 359 L 575 359 L 576 358 Q 578 349 574 347 L 574 312 L 567 312 L 567 304 L 559 304 L 559 299 L 567 299 L 567 291 L 574 291 L 574 245 L 574 244 L 567 244 L 567 236 L 559 236 L 559 228 L 549 228 L 548 227 L 540 227 L 540 219 L 463 219 L 462 220 L 462 235 L 461 236 Q 455 235 454 237 L 452 236 L 445 236 L 445 228 L 427 227 Q 429 221 426 219 L 409 219 L 409 226 Q 408 229 402 227 L 400 229 L 400 313 L 400 313 L 393 313 Q 390 314 391 321 L 390 322 Q 385 322 385 322 L 385 237 L 385 236 L 378 236 L 378 228 L 367 228 L 366 227 Q 356 230 359 221 L 358 219 L 341 219 Z M 584 219 L 584 235 Q 583 237 577 236 L 575 238 L 575 347 L 577 348 L 584 348 L 584 365 L 601 366 L 600 367 L 600 375 L 681 375 L 681 375 L 681 368 L 689 368 L 689 359 L 697 359 L 698 358 Q 699 350 696 348 L 696 315 L 695 314 L 695 312 L 689 312 L 689 304 L 681 304 L 681 299 L 689 299 L 689 291 Q 694 293 696 290 L 696 246 L 695 244 L 689 244 L 689 236 L 681 236 L 681 228 L 670 228 L 669 227 L 662 227 L 662 220 L 662 219 L 584 219 Z M 838 242 L 838 249 L 845 249 L 845 242 L 838 242 Z M 831 249 L 831 256 L 838 256 L 838 249 L 831 249 Z M 845 249 L 845 256 L 852 256 L 852 249 L 845 249 Z M 838 256 L 838 263 L 845 263 L 845 256 L 838 256 Z M 270 390 L 268 392 L 268 407 L 260 407 L 259 410 L 259 473 L 251 473 L 251 458 L 161 458 L 161 473 L 146 473 L 146 488 L 131 488 L 131 518 L 117 518 L 116 519 L 116 548 L 101 548 L 101 563 L 86 563 L 86 578 L 71 578 L 71 593 L 101 593 L 101 608 L 701 608 L 702 606 L 796 606 L 797 599 L 852 599 L 853 592 L 887 592 L 887 558 L 887 557 L 880 557 L 880 543 L 873 543 L 873 536 L 866 536 L 866 529 L 859 529 L 859 522 L 852 522 L 852 515 L 845 515 L 845 501 L 838 501 L 838 494 L 831 494 L 831 487 L 817 487 L 817 480 L 790 480 L 789 481 L 789 487 L 773 487 L 772 487 L 772 417 L 772 416 L 764 416 L 764 399 L 747 399 L 746 400 L 745 390 L 729 390 L 727 392 Q 730 401 721 398 L 719 400 L 719 415 L 712 415 L 710 417 L 710 424 L 702 424 L 702 432 L 701 433 L 693 433 L 693 441 L 687 441 L 687 440 Q 688 433 686 432 L 679 432 L 679 424 L 670 424 L 670 407 L 668 406 L 662 406 L 662 399 L 651 399 L 650 398 L 643 398 L 643 390 L 625 390 L 625 406 Q 623 409 618 407 L 616 409 L 616 416 L 608 416 L 608 408 L 607 406 L 600 406 L 600 399 L 589 399 L 588 398 L 581 398 L 581 390 L 505 390 L 503 392 L 503 407 L 495 407 L 494 410 L 494 416 L 486 416 L 486 408 L 485 406 L 478 406 L 478 399 L 468 399 L 467 398 L 459 398 L 459 390 L 391 390 L 390 391 L 390 398 L 384 398 L 383 399 L 381 400 L 381 407 L 373 407 L 373 418 L 372 418 L 372 416 L 365 416 L 365 407 L 363 406 Q 354 409 357 401 L 356 399 L 346 399 L 345 398 Q 335 401 338 392 L 337 390 L 270 390 Z " /><path fill="rgb(0,0,0)" stroke="rgb(0,0,0)" stroke-width="1" opacity="0" d="M 521.5 255 L 522 270 L 514.5 270 L 513 271.5 L 513 279 L 506.5 279 L 507 277.5 L 507 266 L 513.5 266 Q 517.8 264.1 516 257 Q 520.3 258 521.5 255 Z " /><path fill="rgb(0,0,0)" stroke="rgb(0,0,0)" stroke-width="1" opacity="0" d="M 643.5 255 L 644 270 L 636.5 270 L 635 271.5 L 635 279 L 628.5 279 L 629 277.5 L 629 266 L 635.5 266 Q 639.8 264.1 638 257 Q 642.3 258 643.5 255 Z " /><path fill="rgb(0,0,0)" stroke="rgb(0,0,0)" stroke-width="1" opacity="0" d="M 278.5 256 L 279 268.5 L 277.5 270 L 270 270 L 270 279 L 263.5 279 L 263.5 278 L 265 277.5 L 265 266 L 270.5 266 L 272 264.5 L 272 257 L 278.5 256 Z " /><path fill="rgb(0,0,0)" stroke="rgb(0,0,0)" stroke-width="1" opacity="0" d="M 764.5 265 L 765 287 L 757 287 L 757 294.5 Q 755.4 297.5 750 296 L 751 293.5 L 751 273 L 758.5 273 L 760 271.5 Q 757.4 264.2 763.5 266 L 764.5 265 Z " /><path fill="rgb(0,0,0)" stroke="rgb(0,0,0)" stroke-width="1" opacity="0" d="M 521.5 315 L 522 330 L 514.5 330 L 513 331.5 L 513 339 L 506.5 339 L 507 337.5 L 507 326 L 513.5 326 Q 517.8 324.1 516 317 Q 520.3 318 521.5 315 Z " /><path fill="rgb(0,0,0)" stroke="rgb(0,0,0)" stroke-width="1" opacity="0" d="M 643.5 315 L 644 330 L 636.5 330 L 635 331.5 L 635 339 L 628.5 339 L 629 337.5 L 629 326 L 635.5 326 Q 639.8 324.1 638 317 Q 643.7 319 643.5 315 Z " /><path fill="rgb(0,0,0)" stroke="rgb(0,0,0)" stroke-width="1" opacity="0" d="M 278.5 316 L 279 328.5 L 277.5 330 L 270 330 L 270 339 L 263.5 339 L 263.5 338 L 265 337.5 L 265 326 L 270.5 326 L 272 324.5 L 272 317 L 278.5 316 Z " /><path fill="rgb(0,0,0)" stroke="rgb(0,0,0)" stroke-width="1" opacity="0" d="M 562.5 426 L 563 448.5 L 561.5 450 Q 555.5 448.5 554 451.5 Q 557.3 461.3 547.5 458 L 548 456.5 L 548 436 L 555.5 436 L 557 434.5 L 557 428 Q 562.7 430 562.5 426 Z " /><path fill="rgb(0,0,0)" stroke="rgb(0,0,0)" stroke-width="1" opacity="0" d="M 372.5 434 L 373 468.5 L 372 468.5 L 370.5 466 L 365 466 L 365 459 L 357 459 L 357 451.5 L 356 449 L 347.5 449 L 347 450.5 L 345.5 450 L 338 450 L 338 442.5 L 336.5 441 L 321 440.5 L 322 436 L 370.5 436 L 372.5 434 Z " /><path fill="rgb(0,0,0)" stroke="rgb(0,0,0)" stroke-width="1" opacity="0" d="M 440.5 435 L 441 493 L 433 493 L 433 501 L 426.5 501 L 427 499.5 L 427 445.5 L 427.5 445 L 434.5 445 L 435 443.5 L 436 442.5 L 436 436 L 440.5 435 Z " /><path fill="rgb(0,0,0)" stroke="rgb(0,0,0)" stroke-width="1" opacity="0" d="M 615.5 478 L 616 501.5 L 615 501.5 L 614.5 500 L 608 500 L 608 493.5 Q 606.1 490.3 600 492 L 600 488 L 606.5 488 L 608 486.5 L 608 480 L 614.5 480 L 615.5 478 Z " /><path fill="rgb(0,0,0)" stroke="rgb(0,0,0)" stroke-width="1" opacity="0" d="M 372.5 485 L 373 519 L 381 519 L 381 526.5 L 382.5 528 Q 388.5 526.5 390 529.5 L 390 536 L 398.5 536 L 398 537.5 L 399.5 540 L 406 540 L 406 543 L 397 543 L 397 550 Q 402.6 548.1 401 553 L 391 553 Q 393.5 560.5 386 558 L 386 548 L 371 548 L 371 533 L 356 533 L 356 518 L 322 518 L 322 488 L 370.5 488 L 372 486.5 L 372.5 485 Z " /><path fill="rgb(0,0,0)" stroke="rgb(0,0,0)" stroke-width="1" opacity="0" d="M 679 494 Q 684.3 492.8 683.5 496 L 692 496 L 692 503.5 L 692.5 504 L 710 504 L 710 514.5 L 711 515.5 L 711 527 L 717.5 527 L 719 528.5 L 705 529 L 705 536 L 698 536 L 698 543 L 684.5 543 L 684 548 L 677 548 L 677 539.5 L 679 537.5 L 679 494 Z " /><path fill="rgb(0,0,0)" stroke="rgb(0,0,0)" stroke-width="1" opacity="0" d="M 556.5 511 L 563 511 L 563 529 L 557 529 L 557 512.5 L 556.5 511 Z " /><path fill="rgb(0,0,0)" stroke="rgb(0,0,0)" stroke-width="1" opacity="0" d="M 494.5 519 L 495 527 L 501.5 527 L 503 528.5 L 495 529 L 495 533 L 486 533 L 486 530 L 493.5 530 Q 496.3 528.7 494 527.5 L 494.5 519 Z " /><path fill="rgb(0,0,0)" stroke="rgb(0,0,0)" stroke-width="1" opacity="0" d="M 616.5 519 L 625 519 L 625 529 L 617 529 L 617 520.5 L 616.5 519 Z " /><path fill="rgb(1,1,2)" stroke="rgb(1,1,2)" stroke-width="1" opacity="0.8588235294117647" d="M 264.5 219 L 295.5 219 L 297 220.5 Q 293.8 230.3 303.5 227 L 305 229.5 L 304 229.5 L 303.5 228 L 296.5 228 Q 293.3 226.1 295 220 L 264.5 220 L 264.5 219 Z " /><path fill="rgb(1,1,2)" stroke="rgb(1,1,2)" stroke-width="1" opacity="0.8588235294117647" d="M 341.5 219 L 357.5 219 L 359 220.5 Q 355.8 230.3 365.5 227 L 366.5 229 L 365.5 228 L 358 228 L 357 220 L 341.5 220 L 341.5 219 Z " /><path fill="rgb(1,1,2)" stroke="rgb(1,1,2)" stroke-width="1" opacity="0.8588235294117647" d="M 409 219 L 425.5 219 L 427 220.5 L 427 227 L 434.5 227 L 435.5 229 L 426 228 L 426 220 L 410 220 Q 411.8 226.1 408.5 228 L 401.5 228 L 401 228.5 L 401 313.5 L 400.5 314 L 393 314 L 393 320.5 Q 391.1 324.8 384 323 L 384.5 321 L 389.5 322 L 391 320.5 Q 389.5 314.5 392.5 313 L 399.5 313 L 400 312.5 L 400 228.5 L 401.5 227 Q 407.5 228.5 409 225.5 L 409 219 Z " /><path fill="rgb(1,1,2)" stroke="rgb(1,1,2)" stroke-width="1" opacity="0.8588235294117647" d="M 462 219 L 539.5 219 L 540 219.5 L 540 227 L 547.5 227 L 548.5 229 L 540.5 228 L 539 226.5 Q 539.8 220.3 538.5 220 L 463 220 L 463 235.5 L 461.5 237 Q 455.5 235.5 454 238.5 L 454 346.5 L 454.5 347 L 461.5 347 L 463 348.5 L 463 364 L 481 364.5 L 463.5 365 L 462 363.5 L 462 348 L 454.5 348 L 453 346.5 L 453 237.5 L 454.5 236 Q 460.5 237.5 462 234.5 L 462 219 Z " /><path fill="rgb(1,1,2)" stroke="rgb(1,1,2)" stroke-width="1" opacity="0.8588235294117647" d="M 584 219 L 661.5 219 L 662 219.5 L 662 227 L 668.5 227 L 671 228.5 L 669.5 229 L 668.5 228 L 661 228 L 661 220.5 L 660.5 220 L 585 220 L 585 235.5 L 583.5 237 L 576.5 237 L 576 237.5 L 576 347 L 583.5 347 L 585 348.5 L 585 364 L 601.5 364 L 601.5 365 L 584 365 L 584 348 L 576.5 348 L 575 346.5 L 575 237.5 L 576.5 236 Q 582.5 237.5 584 234.5 L 584 219 Z " /><path fill="rgb(1,1,2)" stroke="rgb(1,1,2)" stroke-width="1" opacity="0.8588235294117647" d="M 714 219 L 761 219.5 L 715 220 L 715 228 L 707 228 L 707 233.5 L 706 233.5 L 706 227 L 714 227 L 714 219 Z " /><path fill="rgb(1,1,2)" stroke="rgb(1,1,2)" stroke-width="1" opacity="0.8588235294117647" d="M 332 227 L 341 227.5 L 333 228 L 333 346.5 L 333.5 347 L 340.5 347 L 341 348.5 L 339.5 348 L 332.5 348 L 332 347.5 L 332 227 Z " /><path fill="rgb(1,1,2)" stroke="rgb(1,1,2)" stroke-width="1" opacity="0.8588235294117647" d="M 705.5 235 L 706 237 L 698.5 237 L 698 237.5 L 698 347 L 705.5 347 L 706 348.5 L 707 349.5 L 707 356 Q 713.1 354.3 715 357.5 L 715 364 L 723.5 364 L 723.5 365 L 715.5 365 L 714 363.5 L 714 357 L 706 357 L 706 349.5 L 704.5 348 L 697 348 L 697 236.5 L 697.5 236 L 704.5 236 L 705.5 235 Z " /><path fill="rgb(1,1,2)" stroke="rgb(1,1,2)" stroke-width="1" opacity="0.8588235294117647" d="M 278.5 254 L 280 255.5 L 280 268.5 L 279 271 L 271 271 L 271 278.5 L 270 278.5 L 270 270 L 277.5 270 L 279 268.5 L 279 256.5 L 278.5 254 Z " /><path fill="rgb(1,1,2)" stroke="rgb(1,1,2)" stroke-width="1" opacity="0.8588235294117647" d="M 522.5 254 L 523 271 L 515.5 271 L 514 272.5 L 513.5 279 L 513 271.5 L 514.5 270 L 522 270 L 522.5 254 Z " /><path fill="rgb(1,1,2)" stroke="rgb(1,1,2)" stroke-width="1" opacity="0.8588235294117647" d="M 644.5 254 L 645 269.5 L 643.5 271 Q 637.5 269.5 636 272.5 L 635.5 279 L 635 271.5 L 636.5 270 L 644 270 L 644.5 254 Z " /><path fill="rgb(1,1,2)" stroke="rgb(1,1,2)" stroke-width="1" opacity="0.8588235294117647" d="M 765.5 263 Q 768.3 264.3 766 265.5 L 766 287.5 L 765.5 288 L 758 288 L 758 295.5 L 756.5 297 L 748.5 297 L 749.5 295 Q 750.7 297.3 755.5 296 L 757 294.5 L 757 287 L 765 287 L 765.5 263 Z " /><path fill="rgb(1,1,2)" stroke="rgb(1,1,2)" stroke-width="1" opacity="0.8588235294117647" d="M 263.5 279 L 269 279.5 L 263.5 280 L 263.5 279 Z " /><path fill="rgb(1,1,2)" stroke="rgb(1,1,2)" stroke-width="1" opacity="0.8588235294117647" d="M 506.5 279 L 512 279.5 L 506.5 280 L 506.5 279 Z " /><path fill="rgb(1,1,2)" stroke="rgb(1,1,2)" stroke-width="1" opacity="0.8588235294117647" d="M 628.5 279 L 634 279.5 L 628.5 280 L 628.5 279 Z " /><path fill="rgb(1,1,2)" stroke="rgb(1,1,2)" stroke-width="1" opacity="0.8588235294117647" d="M 210.5 284 L 211 347 L 218.5 347 L 220 348.5 L 220 364 L 236.5 364 L 236.5 365 L 219 365 L 219 349.5 L 217.5 348 L 210 348 L 210.5 284 Z " /><path fill="rgb(1,1,2)" stroke="rgb(1,1,2)" stroke-width="1" opacity="0.8588235294117647" d="M 278.5 314 L 280 315.5 L 280 328.5 L 279 331 L 271 331 L 271 338.5 L 270 338.5 L 270 330 L 277.5 330 L 279 328.5 L 279 316.5 L 278.5 314 Z " /><path fill="rgb(1,1,2)" stroke="rgb(1,1,2)" stroke-width="1" opacity="0.8588235294117647" d="M 522.5 314 L 523 329.5 L 521.5 331 Q 515.5 329.5 514 332.5 L 513.5 339 L 513 331.5 L 514.5 330 L 522 330 L 522.5 314 Z " /><path fill="rgb(1,1,2)" stroke="rgb(1,1,2)" stroke-width="1" opacity="0.8588235294117647" d="M 644.5 314 L 645 329.5 L 643.5 331 Q 637.5 329.5 636 332.5 L 635.5 339 L 635 331.5 L 636.5 330 L 644 330 L 644.5 314 Z " /><path fill="rgb(1,1,2)" stroke="rgb(1,1,2)" stroke-width="1" opacity="0.8588235294117647" d="M 263.5 339 L 269 339.5 L 263.5 340 L 263.5 339 Z " /><path fill="rgb(1,1,2)" stroke="rgb(1,1,2)" stroke-width="1" opacity="0.8588235294117647" d="M 506.5 339 L 512 339.5 L 506.5 340 L 506.5 339 Z " /><path fill="rgb(1,1,2)" stroke="rgb(1,1,2)" stroke-width="1" opacity="0.8588235294117647" d="M 628.5 339 L 634 339.5 L 628.5 340 L 628.5 339 Z " /><path fill="rgb(1,1,2)" stroke="rgb(1,1,2)" stroke-width="1" opacity="0.8588235294117647" d="M 765.5 340 Q 768.3 341.3 766 342.5 L 766 362.5 L 767.5 364 L 783 364.5 L 766 365 L 765 362.5 L 765.5 340 Z " /><path fill="rgb(1,1,2)" stroke="rgb(1,1,2)" stroke-width="1" opacity="0.8588235294117647" d="M 341.5 355 Q 343 357.5 348.5 356 L 350 357.5 L 350 364 L 358.5 364 L 358.5 365 L 349 365 L 349 357 L 341.5 357 L 341.5 355 Z " /><path fill="rgb(1,1,2)" stroke="rgb(1,1,2)" stroke-width="1" opacity="0.8588235294117647" d="M 269.5 390 L 336.5 390 L 338 391.5 Q 334.8 401.3 344.5 398 L 347 399.5 L 345.5 400 L 344.5 399 L 337 399 L 337 391.5 L 336.5 391 L 270.5 391 L 269 392.5 L 269 408 L 261.5 408 L 261 408.5 L 261 472.5 L 259 473 L 259 409.5 L 260 407 L 268 407 L 268 391.5 L 269.5 390 Z " /><path fill="rgb(1,1,2)" stroke="rgb(1,1,2)" stroke-width="1" opacity="0.8588235294117647" d="M 390 390 L 458.5 390 L 459 390.5 L 459 398 L 466.5 398 L 467.5 400 Q 465.8 397.2 459.5 399 L 458 397.5 Q 458.8 391.3 457.5 391 L 391 391 L 391 399 L 383.5 399 L 383.5 398 L 390 398 L 390 390 Z " /><path fill="rgb(1,1,2)" stroke="rgb(1,1,2)" stroke-width="1" opacity="0.8588235294117647" d="M 504.5 390 L 580.5 390 L 581 390.5 L 581 398 L 587.5 398 L 587.5 399 L 580 399 L 580 391.5 L 579.5 391 L 504 391 L 504 406.5 L 502.5 408 Q 496.3 407.3 496 408.5 L 496 526 L 503.5 526 L 505 527.5 Q 505.8 529.8 503.5 529 Q 501.6 525.3 495 527 L 495 519.5 L 494 518.5 L 494 409.5 L 495 407 L 503 407 L 503 391.5 L 504.5 390 Z " /><path fill="rgb(1,1,2)" stroke="rgb(1,1,2)" stroke-width="1" opacity="0.8588235294117647" d="M 625 390 L 643 390 L 643 398 L 649.5 398 L 652 399.5 L 650.5 400 L 649.5 399 L 642 399 L 642 391 L 626 391 L 626 406.5 L 624.5 408 L 617.5 408 L 617 408.5 L 617 518 L 624 518.5 L 616 519 L 616 408.5 L 617.5 407 Q 623.5 408.5 625 405.5 L 625 390 Z " /><path fill="rgb(1,1,2)" stroke="rgb(1,1,2)" stroke-width="1" opacity="0.8588235294117647" d="M 728.5 390 L 745 390.5 L 729 391 L 728 399 L 720 399 L 720 416 L 712.5 416 L 711 417.5 L 711 425 L 703 425 L 703 432.5 L 701.5 434 L 694 434 L 694 442 L 684.5 442 L 684.5 441 L 693 441 L 693 433 L 700.5 433 L 702 431.5 L 702 424 L 710 424 L 710 416.5 L 711.5 415 L 719 415 L 719 399.5 L 720.5 398 Q 730.3 401.3 727 391.5 L 728.5 390 Z " /><path fill="rgb(1,1,2)" stroke="rgb(1,1,2)" stroke-width="1" opacity="0.8588235294117647" d="M 381.5 399 L 382 408 L 374.5 408 L 374 408.5 L 374 518 L 380.5 518 L 382 519.5 Q 380.5 525.5 383.5 527 Q 389.5 525.5 391 528.5 L 391 535 L 399.5 535 L 399.5 536 L 390 536 L 390 529.5 L 388.5 528 Q 382.5 529.5 381 526.5 L 381 519 L 373.5 519 L 373 518.5 L 373 485.5 L 372 484.5 L 372 469.5 L 373 468.5 L 373 434.5 L 372 433.5 L 372 418.5 L 373 417.5 L 373 407 L 381 407 L 381.5 399 Z " /><path fill="rgb(1,1,2)" stroke="rgb(1,1,2)" stroke-width="1" opacity="0.8588235294117647" d="M 563.5 425 L 564 449.5 L 562.5 451 L 555 451 L 555 459 L 546.5 459 L 546.5 458 L 554 458 L 554 451.5 L 555.5 450 Q 561.5 451.5 563 448.5 L 563.5 425 Z " /><path fill="rgb(1,1,2)" stroke="rgb(1,1,2)" stroke-width="1" opacity="0.8588235294117647" d="M 441.5 434 L 442 492.5 Q 440.1 495.8 434 494 Q 435.8 500.1 432.5 502 L 424 501.5 L 433 501 L 433 493 L 440.5 493 L 441 492.5 L 441.5 434 Z " /><path fill="rgb(1,1,2)" stroke="rgb(1,1,2)" stroke-width="1" opacity="0.8588235294117647" d="M 320.5 441 L 336.5 441 L 338 442.5 L 338 450 L 345.5 450 L 346 451.5 L 344.5 451 Q 338.5 452.5 337 449.5 Q 338.5 443.5 335.5 442 L 320.5 442 L 320.5 441 Z " /><path fill="rgb(1,1,2)" stroke="rgb(1,1,2)" stroke-width="1" opacity="0.8588235294117647" d="M 676.5 486 L 677 493 L 687 493.5 L 677.5 494 Q 674.1 492.1 676.5 486 Z " /><path fill="rgb(1,1,2)" stroke="rgb(1,1,2)" stroke-width="1" opacity="0.8588235294117647" d="M 554.5 495 L 555 508.5 L 556.5 510 L 564 510 L 564 518.5 L 565 519.5 L 565 529 L 563 528.5 L 563 511 L 555.5 511 L 555 509.5 L 554 508.5 L 554.5 495 Z " /><path fill="rgb(1,1,2)" stroke="rgb(1,1,2)" stroke-width="1" opacity="0.8588235294117647" d="M 710.5 495 L 712 526 L 718.5 526 L 719 527.5 L 717.5 527 L 711 527 L 711 515.5 L 710 514.5 L 710.5 495 Z " /><path fill="rgb(1,1,2)" stroke="rgb(1,1,2)" stroke-width="1" opacity="0.8588235294117647" d="M 625.5 519 L 626 528.5 L 625 528.5 L 625.5 519 Z " /><path fill="rgb(0,0,0)" stroke="rgb(0,0,0)" stroke-width="1" opacity="1" d="M 264.5 220 L 294.5 220 Q 295.8 220.3 295 226.5 L 296.5 228 L 304 228 L 305 236 L 312.5 236 L 313 236.5 L 313 279 L 305.5 279 L 305 280.5 L 304 281.5 L 304 288 L 296 288 L 296 294.5 Q 297.9 297.8 304 296 Q 302.2 303.1 306.5 305 Q 312.8 304.3 313 305.5 L 313 346.5 L 311.5 348 Q 305.5 346.5 304 349.5 L 304 356 L 298.5 356 L 296 357 L 296 363.5 L 294.5 365 L 237.5 365 L 236.5 364 L 220 364 L 220 348.5 L 218.5 347 L 211.5 347 L 211 346.5 L 211 284 L 222 284 L 222 277 L 229 277 L 229 249.5 L 229.5 249 L 236 249 L 236 235 L 243 235 L 243 228 L 250 228 L 250 221 L 263.5 221 L 264.5 220 Z M 254 245 L 254 252 Q 252 256 245 254 L 245 270 L 252 270 Q 256 272 254 279 L 263 279 L 264 280 Q 268 281 270 279 L 271 279 L 271 271 L 279 271 L 280 269 L 280 256 L 279 254 Q 273 256 272 253 L 270 253 L 270 245 L 254 245 Z M 254 305 L 254 312 Q 252 316 245 314 L 245 330 L 252 330 Q 256 332 254 339 L 263 339 L 264 340 Q 268 341 270 339 L 271 339 L 271 331 L 279 331 L 280 329 L 280 316 L 279 314 Q 273 316 272 313 L 270 313 L 270 305 L 254 305 Z " /><path fill="rgb(0,0,0)" stroke="rgb(0,0,0)" stroke-width="1" opacity="1" d="M 341 220 L 357 220 L 357 225.5 L 358 228 L 365.5 228 L 366 228.5 L 366 312.5 L 366.5 313 L 373.5 313 L 375 314.5 L 375 322 L 390.5 323 Q 394.8 321.1 393 314 L 400.5 314 L 401 313.5 L 401 228.5 L 401.5 228 L 408.5 228 L 410 226.5 L 410 220 L 426 220 L 426 228 L 433.5 228 L 435 229.5 L 435 346.5 L 433.5 348 L 426 348 L 426 356 L 419.5 356 L 418 357.5 Q 419.5 363.5 416.5 365 L 359.5 365 L 358.5 364 L 350 364 Q 351.8 357.9 348.5 356 Q 342.5 357.5 341 354.5 L 341 347 L 333.5 347 L 333 346.5 L 333 228 L 341 228 L 341 220 Z " /><path fill="rgb(0,0,0)" stroke="rgb(0,0,0)" stroke-width="1" opacity="1" d="M 463 220 L 538.5 220 Q 539.8 220.3 539 226.5 L 540.5 228 Q 546.5 226.5 548 229.5 Q 546.8 234.8 549.5 236 Q 555.5 234.5 557 237.5 L 557 278.5 L 556.5 279 L 549.5 279 L 548 280.5 Q 549.5 286.5 546.5 288 L 540 288 L 540 296 Q 546.1 294.3 548 297.5 Q 546.5 304.5 549.5 304 L 550.5 305 L 557 305 L 557 346.5 L 555.5 348 L 548 348 L 548 356 L 541.5 356 Q 538.3 357.9 540 364 L 537.5 365 L 481.5 365 L 480.5 364 L 463 364 L 463 348.5 L 461.5 347 L 454.5 347 L 454 346.5 L 454 238.5 L 455.5 237 Q 461.5 238.5 463 235.5 L 463 220 Z M 497 245 L 497 253 L 496 254 L 488 254 L 488 270 L 496 270 L 497 272 L 497 279 L 506 279 L 507 280 Q 511 281 513 279 Q 515 280 514 273 L 516 271 L 523 271 L 523 254 L 516 254 Q 513 253 514 247 L 513 245 L 497 245 Z M 497 305 L 497 313 L 496 314 L 488 314 L 488 330 L 496 330 L 497 332 L 497 339 L 506 339 L 507 340 Q 511 341 513 339 Q 515 339 514 333 Q 515 330 522 331 L 523 330 L 523 314 L 516 314 Q 513 312 514 307 L 513 305 L 497 305 Z " /><path fill="rgb(0,0,0)" stroke="rgb(0,0,0)" stroke-width="1" opacity="1" d="M 585 220 L 660.5 220 L 661 220.5 L 661 228 L 668.5 228 Q 671.8 229.9 670 236 L 677.5 236 L 678 237.5 L 678 239.5 L 678 278.5 L 677.5 279 L 670 279 L 670 286.5 L 668.5 288 Q 662.5 286.5 661 289.5 Q 659.8 294.8 662.5 296 Q 668.5 294.5 670 297.5 Q 668.5 303.5 671.5 305 Q 678.5 303.5 678 306.5 L 678 308.5 L 678 347.5 L 677.5 348 L 670 348 L 670 354.5 L 668.5 356 Q 663.1 355.4 661 357 Q 662.8 363.1 659.5 365 L 602.5 365 L 601.5 364 L 585 364 L 585 348.5 L 583.5 347 L 576.5 347 L 576 346.5 L 576 237 L 583.5 237 L 585 235.5 L 585 220 Z M 619 245 L 619 253 L 618 254 L 610 254 L 610 270 L 618 270 L 619 272 L 619 279 L 628 279 L 629 280 Q 633 281 635 279 Q 637 280 636 273 Q 638 269 644 271 L 645 270 L 645 254 L 638 254 Q 635 253 636 247 L 635 245 L 619 245 Z M 619 305 L 619 313 Q 616 315 610 314 L 610 330 L 618 330 L 619 332 L 619 339 L 628 339 L 629 340 Q 633 341 635 339 Q 637 339 636 333 Q 638 330 644 331 L 645 330 L 645 314 L 638 314 Q 635 312 636 307 L 635 305 L 619 305 Z " /><path fill="rgb(0,0,0)" stroke="rgb(0,0,0)" stroke-width="1" opacity="1" d="M 715 220 L 760.5 220 L 761.5 221 L 775 221 L 775 263 L 789 263 L 789 256 L 796 256 L 796 249 L 800 249 L 800 346.5 L 798.5 348 Q 788.8 344.8 792 354.5 L 790.5 356 Q 785.8 354.8 784.5 357 L 783 356.5 L 783 364 L 767.5 364 L 766 362.5 L 766 342.5 Q 768.8 340.8 764.5 339 L 757 339 L 757 331 L 741.5 331 Q 738.3 332.9 740 339 L 732 339 L 732 363.5 L 730.5 364 Q 729.2 366.3 724.5 365 L 723.5 364 L 715 364 L 715 357.5 L 713.5 356 Q 703.8 359.3 707 349.5 L 706 347 L 698.5 347 L 698 346.5 L 698 237 L 706 237 L 706 234.5 L 707 228 L 715 228 L 715 220 Z M 742 254 L 740 256 L 740 262 Q 734 260 732 264 L 732 287 Q 732 288 739 287 Q 741 289 740 295 L 742 296 Q 747 295 749 297 L 757 297 L 758 296 L 758 288 L 766 288 L 766 288 L 766 266 Q 769 264 765 262 L 757 262 L 757 254 L 742 254 Z " /><path fill="rgb(0,0,0)" stroke="rgb(0,0,0)" stroke-width="1" opacity="1" d="M 270.5 391 L 336.5 391 L 337 391.5 L 337 399 L 344.5 399 Q 347.8 400.9 346 407 Q 352.1 405.3 354 408.5 L 354 423.5 L 352.5 425 L 303.5 425 L 303 425.5 L 303 441 L 335.5 442 L 337 443.5 Q 335.5 449.5 338.5 451 Q 344.5 449.5 346 452.5 Q 344.8 457.8 347.5 459 L 354 459 L 354 476 L 303 476 L 303 526.5 L 302.5 527 L 295.5 527 Q 292.3 528.9 294 535 L 269.5 535 Q 268.3 534.8 269 528.5 L 267.5 527 Q 261.5 528.5 260 525.5 L 261 408 L 269 408 L 269 392.5 L 270.5 391 Z " /><path fill="rgb(0,0,0)" stroke="rgb(0,0,0)" stroke-width="1" opacity="1" d="M 391 391 L 457.5 391 Q 458.8 391.3 458 397.5 L 459.5 399 L 467 399 L 467 407 L 474.5 407 L 476 408.5 L 476 519 L 467 519 L 467 527 L 459.5 527 L 458.5 529 L 446 529 L 446 534.5 L 445.5 535 L 404.5 535 L 400.5 536 L 399.5 535 L 391 535 L 391 528.5 L 389.5 527 Q 383.5 528.5 382 525.5 Q 383.5 519.5 380.5 518 Q 374.3 518.8 374 517.5 L 374 408 L 382 408 L 382 399 L 391 399 L 391 391 Z M 418 425 L 416 427 L 416 433 Q 409 431 407 436 L 407 490 L 408 491 L 408 493 L 416 493 L 416 501 L 424 501 L 425 502 L 433 502 L 434 501 Q 431 491 441 494 L 442 493 L 442 434 L 440 433 L 433 433 L 433 425 L 418 425 Z " /><path fill="rgb(0,0,0)" stroke="rgb(0,0,0)" stroke-width="1" opacity="1" d="M 504 391 L 579.5 391 L 580 391.5 L 580 399 L 589 399 L 589 407 L 596.5 407 L 598 408.5 L 598 467 Q 591.8 466.1 589 468 L 589 476 L 581 476 L 581 484 L 587.5 484 L 589 485.5 L 589 493 L 596.5 493 L 598 494.5 L 598 518.5 L 597 519.5 L 597 527 L 589.5 527 L 588.5 529 L 572.5 529 L 572 533 L 565 533 L 564 510 L 556.5 510 L 555 508.5 L 555 494.5 L 553.5 493 L 546 493 L 546 485 L 538 485 L 538 517.5 L 536 519.5 L 536 527 L 529.5 527 L 528.5 529 L 505 529 L 503.5 526 L 496.5 526 L 496 525.5 L 496 408 Q 502.1 409.8 504 406.5 L 504 391 Z M 538 416 L 538 424 L 537 425 L 529 425 L 529 450 L 530 450 L 537 450 L 538 452 L 538 459 L 555 459 L 555 451 L 563 451 L 564 450 L 564 426 L 564 425 L 555 425 L 555 418 L 554 416 L 538 416 Z " /><path fill="rgb(0,0,0)" stroke="rgb(0,0,0)" stroke-width="1" opacity="1" d="M 626 391 L 642 391 L 642 399 L 649.5 399 L 651 400.5 L 651 414.5 L 652.5 416 Q 658.5 414.5 660 417.5 Q 656.8 427.3 666.5 424 L 668 425.5 L 668 433 L 675.5 433 L 677 434.5 Q 673.8 444.3 683.5 441 L 684.5 442 L 694 442 L 694 434 L 701.5 434 L 703 432.5 L 703 425 L 711 425 L 711 417.5 L 712.5 416 L 720 416 L 720 399 L 727.5 399 L 728 397.5 L 729 391 L 745 391 L 745 407 L 752.5 407 L 753 408.5 L 754 409.5 L 754 489.5 L 753 490.5 L 753 508 L 740 508 L 740 515 L 726 515 L 726 522 L 719.5 522 L 719 526 L 712 526 L 712 514.5 L 711 513.5 L 711 477.5 L 709.5 476 Q 699.8 472.8 703 482.5 Q 701.1 486.8 694 485 L 694 493 L 677 493 Q 678.8 486.9 675.5 485 Q 669.5 486.5 668 483.5 Q 669.5 477.5 666.5 476 Q 660.3 475.3 660 476.5 L 660 526.5 L 659.5 527 L 652.5 527 L 651 528.5 L 651 536 L 625.5 536 Q 624.3 535.8 625 529.5 L 626 528.5 L 626 519 Q 623.2 517.1 617 518 L 617 408.5 L 617.5 408 L 624.5 408 L 626 406.5 L 626 391 Z " /><path fill="rgb(108,206,212)" stroke="rgb(108,206,212)" stroke-width="1" opacity="0.08627450980392157" d="M 306.5 228 L 314.5 228 L 316 229.5 Q 312.8 239.3 322.5 236 Q 325.8 237.9 324 244 Q 329.4 242.5 331 245.5 L 323.5 246 L 322 244.5 L 322 237 L 314 237 L 314 229 L 306.5 229 L 306.5 228 Z " /><path fill="rgb(108,206,212)" stroke="rgb(108,206,212)" stroke-width="1" opacity="0.08627450980392157" d="M 367.5 228 L 378 228 L 378 236 L 384.5 236 L 385 236.5 L 385 320.5 L 384 320.5 L 384 238.5 L 382.5 237 L 376 237 L 376 229 L 367.5 229 L 367.5 228 Z " /><path fill="rgb(108,206,212)" stroke="rgb(108,206,212)" stroke-width="1" opacity="0.08627450980392157" d="M 436.5 228 L 445 228 L 445 236 L 451.5 236 L 451.5 237 L 444 237 L 444 229 L 436.5 229 L 436.5 228 Z " /><path fill="rgb(108,206,212)" stroke="rgb(108,206,212)" stroke-width="1" opacity="0.08627450980392157" d="M 550.5 228 L 559 228 L 559 236 L 567 236 L 567 244 L 573.5 244 L 574 246 Q 567.9 247.8 566 244.5 Q 567.5 238.5 564.5 237 L 558 237 L 558 234.5 L 557 229 L 550.5 229 L 550.5 228 Z " /><path fill="rgb(108,206,212)" stroke="rgb(108,206,212)" stroke-width="1" opacity="0.08627450980392157" d="M 671.5 228 L 681 228 L 681 236 L 689 236 L 689 244 L 694.5 244 L 695.5 246 Q 688.8 247.8 687 244.5 L 687 237 L 679 237 L 679 229 L 671.5 229 L 671.5 228 Z " /><path fill="rgb(108,206,212)" stroke="rgb(108,206,212)" stroke-width="1" opacity="0.08627450980392157" d="M 803.5 236 L 810 236 L 810 244 L 818.5 244 L 819 245.5 L 820 246.5 L 820 357.5 L 818.5 359 L 810 359 L 810 368 L 802 368 L 802 374.5 L 800 375 L 801 367 Q 807.1 368.8 809 365.5 L 809 358 L 816.5 358 L 818 356.5 L 818 247.5 L 816.5 246 Q 810.5 247.5 809 244.5 Q 810.5 238.5 807.5 237 Q 802.5 238 803.5 236 Z " /><path fill="rgb(108,206,212)" stroke="rgb(108,206,212)" stroke-width="1" opacity="0.08627450980392157" d="M 272.5 255 Q 279.4 253 278 257 L 272 257 L 272 264.5 Q 270.4 267.5 265 266 L 265 277.5 L 263 278 L 263 264 L 269.5 264 L 271 262.5 Q 269.5 256.5 272.5 255 Z " /><path fill="rgb(108,206,212)" stroke="rgb(108,206,212)" stroke-width="1" opacity="0.08627450980392157" d="M 514 255 L 521 255.5 Q 519.8 258 516 257 Q 517.8 264.1 513.5 266 L 507 266 L 507 277.5 L 506 277.5 L 506 264 L 514 264 L 514 255 Z " /><path fill="rgb(108,206,212)" stroke="rgb(108,206,212)" stroke-width="1" opacity="0.08627450980392157" d="M 636 255 L 643 255.5 Q 641.8 258 638 257 Q 639.8 264.1 635.5 266 L 629 266 L 629 277.5 L 628 277.5 L 628 264 L 636 264 L 636 255 Z " /><path fill="rgb(108,206,212)" stroke="rgb(108,206,212)" stroke-width="1" opacity="0.08627450980392157" d="M 758 264 L 765 264.5 Q 763.8 267 760 266 Q 761.5 271.4 758.5 273 L 751 273 L 751 293.5 L 749 294 L 749 273.5 L 750.5 272 L 758 272 L 758 264 Z " /><path fill="rgb(108,206,212)" stroke="rgb(108,206,212)" stroke-width="1" opacity="0.08627450980392157" d="M 323.5 289 L 331 289.5 Q 329.4 292.5 324 291 L 324 297.5 L 322.5 299 L 316 299 L 316 304 L 322.5 304 L 324 305.5 L 324 312 L 330 312 L 330 314 L 322 314 L 322 306 L 315.5 306 Q 312.3 304.1 314 298 Q 320.1 299.8 322 296.5 Q 320.5 290.5 323.5 289 Z " /><path fill="rgb(108,206,212)" stroke="rgb(108,206,212)" stroke-width="1" opacity="0.08627450980392157" d="M 567.5 289 Q 575.1 287.5 574 291 L 567 291 L 567 299 L 559 299 L 559 304 L 567 304 L 567 312 L 573.5 312 L 574 314 L 566 314 L 566 307.5 L 558 304.5 L 557 299.5 L 558.5 298 Q 564.5 299.5 566 296.5 Q 564.5 290.5 567.5 289 Z " /><path fill="rgb(108,206,212)" stroke="rgb(108,206,212)" stroke-width="1" opacity="0.08627450980392157" d="M 688.5 289 L 696 289.5 Q 694.4 292.5 689 291 L 689 299 L 681 299 L 681 304 L 689 304 L 689 312 L 695 312 L 695 314 L 688.5 314 L 687 312.5 Q 690.3 302.8 680.5 306 Q 677.3 304.1 679 298 L 685.5 298 L 687 296.5 Q 685.5 290.5 688.5 289 Z " /><path fill="rgb(108,206,212)" stroke="rgb(108,206,212)" stroke-width="1" opacity="0.08627450980392157" d="M 272.5 315 Q 279.4 313 278 317 L 272 317 L 272 324.5 Q 270.4 327.5 265 326 L 265 337.5 L 263 338 L 263 324 L 269.5 324 L 271 322.5 Q 269.5 316.5 272.5 315 Z " /><path fill="rgb(108,206,212)" stroke="rgb(108,206,212)" stroke-width="1" opacity="0.08627450980392157" d="M 514 315 L 521 315.5 Q 519.8 318 516 317 Q 517.8 324.1 513.5 326 L 507 326 L 507 337.5 L 506 337.5 L 506 324 L 514 324 L 514 315 Z " /><path fill="rgb(108,206,212)" stroke="rgb(108,206,212)" stroke-width="1" opacity="0.08627450980392157" d="M 636 315 L 642.5 315 L 643 317 L 638 317 L 638 323.5 Q 636.1 327.8 629 326 L 628.5 338 L 628 324 Q 634.1 325.8 636 322.5 L 636 315 Z " /><path fill="rgb(108,206,212)" stroke="rgb(108,206,212)" stroke-width="1" opacity="0.08627450980392157" d="M 758 341 L 765 341.5 L 760 342 Q 761.7 349.1 757.5 351 L 751 351 L 751 374.5 L 748.5 375 L 749 373.5 L 749 350.5 L 750.5 349 L 758 349 L 758 341 Z " /><path fill="rgb(108,206,212)" stroke="rgb(108,206,212)" stroke-width="1" opacity="0.08627450980392157" d="M 574.5 347 Q 577.5 350 576 357.5 L 574.5 359 L 567 359 L 567 368 L 559 368 L 559 375 L 556.5 375 L 557 373.5 Q 555.8 368.3 558.5 367 Q 563.9 367.6 566 366 L 566 358 L 574 358 L 574.5 347 Z " /><path fill="rgb(108,206,212)" stroke="rgb(108,206,212)" stroke-width="1" opacity="0.08627450980392157" d="M 331.5 348 L 332 359 L 324 359 L 324 368 L 316 368 L 316 375 L 313.5 375 L 314 373.5 Q 310.8 363.8 320.5 367 L 322 365.5 L 322 358 L 329.5 358 L 331 356.5 L 331.5 348 Z " /><path fill="rgb(108,206,212)" stroke="rgb(108,206,212)" stroke-width="1" opacity="0.08627450980392157" d="M 696.5 348 Q 699.3 350.7 698 357.5 L 696.5 359 L 689 359 L 689 368 L 681 368 L 681 375 L 678.5 375 L 679 373.5 Q 675.8 363.8 685.5 367 L 687 365.5 Q 685.5 359.5 688.5 358 Q 694.5 359.5 696 356.5 L 696.5 348 Z " /><path fill="rgb(108,206,212)" stroke="rgb(108,206,212)" stroke-width="1" opacity="0.08627450980392157" d="M 453.5 349 L 454 359 L 445 359 L 445 368 L 437 368 L 437 375 L 434.5 375 L 436 372.5 L 436 367 L 442.5 367 L 444 365.5 L 444 358 L 451.5 358 L 453 356.5 L 453.5 349 Z " /><path fill="rgb(108,206,212)" stroke="rgb(108,206,212)" stroke-width="1" opacity="0.08627450980392157" d="M 358.5 366 L 359.5 367 L 366 367 Q 364.5 372.8 368 374.5 L 365 375 L 365 368 L 358 368 L 358.5 366 Z " /><path fill="rgb(108,206,212)" stroke="rgb(108,206,212)" stroke-width="1" opacity="0.08627450980392157" d="M 478.5 366 L 479 372.5 L 481 374.5 L 478 375 L 478.5 366 Z " /><path fill="rgb(108,206,212)" stroke="rgb(108,206,212)" stroke-width="1" opacity="0.08627450980392157" d="M 600.5 366 L 602 374.5 L 600 375 L 600.5 366 Z " /><path fill="rgb(108,206,212)" stroke="rgb(108,206,212)" stroke-width="1" opacity="0.08627450980392157" d="M 721.5 366 L 731 367 L 732 375 L 730 374.5 L 730 368 L 722.5 368 L 721.5 366 Z " /><path fill="rgb(108,206,212)" stroke="rgb(108,206,212)" stroke-width="1" opacity="0.08627450980392157" d="M 781 366 L 783 366.5 L 783 373.5 L 783.5 375 L 781 374.5 L 781 366 Z " /><path fill="rgb(108,206,212)" stroke="rgb(108,206,212)" stroke-width="1" opacity="0.08627450980392157" d="M 347.5 399 L 355.5 399 L 357 400.5 Q 354.3 408.8 362.5 406 L 365 407 L 365 416 L 371.5 416 L 371.5 417 L 364 417 L 364 409.5 L 362.5 408 L 355 408 L 355 400 L 347.5 400 L 347.5 399 Z " /><path fill="rgb(108,206,212)" stroke="rgb(108,206,212)" stroke-width="1" opacity="0.08627450980392157" d="M 469.5 399 L 478 399 L 478 406 L 484.5 406 L 486 407.5 L 486 416 L 494 416.5 L 485 417 L 485 409.5 L 483.5 408 Q 476.5 409.5 477 406.5 L 476 400 L 469.5 400 L 469.5 399 Z " /><path fill="rgb(108,206,212)" stroke="rgb(108,206,212)" stroke-width="1" opacity="0.08627450980392157" d="M 590.5 399 L 600 399 L 600 406 L 606.5 406 L 608 407.5 L 608 416 L 616 416 L 616 418.5 L 615 418.5 L 614.5 417 L 607 417 L 607 409.5 L 605.5 408 L 599 408 L 598 400 L 590.5 400 L 590.5 399 Z " /><path fill="rgb(108,206,212)" stroke="rgb(108,206,212)" stroke-width="1" opacity="0.08627450980392157" d="M 652.5 399 L 662 399 L 662 406 L 667.5 406 L 670 407 L 670 424 L 679 424 L 679 432 L 685.5 432 Q 688.5 433.5 687 439.5 L 686 439.5 Q 687 435 684.5 434 Q 678.5 435.5 677 432.5 Q 678.5 426.5 675.5 425 L 669 425 L 669 409.5 L 667.5 408 L 660 408 L 660 400 L 652.5 400 L 652.5 399 Z " /><path fill="rgb(108,206,212)" stroke="rgb(108,206,212)" stroke-width="1" opacity="0.08627450980392157" d="M 746.5 399 L 764 399 L 764 416 L 771.5 416 L 772 416.5 L 772 486.5 L 771 486.5 L 771 417.5 L 770.5 417 L 763 417 L 763 401.5 L 761.5 400 L 746.5 400 L 746.5 399 Z " /><path fill="rgb(108,206,212)" stroke="rgb(108,206,212)" stroke-width="1" opacity="0.08627450980392157" d="M 556.5 426 Q 563.4 424 562 428 L 557 428 L 557 434.5 L 555.5 436 L 548 436 L 547.5 457 L 547 435 Q 553.1 436.8 555 433.5 Q 553.5 427.5 556.5 426 Z " /><path fill="rgb(108,206,212)" stroke="rgb(108,206,212)" stroke-width="1" opacity="0.08627450980392157" d="M 371.5 434 L 370.5 436 L 322.5 436 L 322 439.5 L 321 439.5 Q 320.5 435 321.5 435 L 370.5 435 L 371.5 434 Z " /><path fill="rgb(108,206,212)" stroke="rgb(108,206,212)" stroke-width="1" opacity="0.08627450980392157" d="M 434 435 L 440 435.5 L 436 436 Q 436.9 442.2 435 445 L 427.5 445 L 427 445.5 L 427 499.5 L 425 500 L 425 444.5 L 426.5 443 L 434 443 L 434 435 Z " /><path fill="rgb(108,206,212)" stroke="rgb(108,206,212)" stroke-width="1" opacity="0.08627450980392157" d="M 347 449 L 355.5 449 L 356 450.5 L 357 451.5 L 357 459 L 365 459 L 365 466 L 370.5 466 L 371.5 468 L 364 468 L 364 461.5 L 362.5 460 Q 356.5 461.5 355 458.5 Q 356.5 452.5 353.5 451 Q 345.9 452.5 347 449 Z " /><path fill="rgb(108,206,212)" stroke="rgb(108,206,212)" stroke-width="1" opacity="0.08627450980392157" d="M 615.5 476 L 616 477.5 L 615 480 L 608 480 L 608 486.5 Q 606.1 489.8 600 488 L 600 492 L 606.5 492 L 608 493.5 L 608 500 L 614.5 500 L 615 501.5 L 616 503.5 L 614.5 503 Q 608.5 504.5 607 501.5 Q 608.5 495.5 605.5 494 Q 598.5 495.5 599 492.5 L 598 487.5 L 599.5 486 Q 605.5 487.5 607 484.5 Q 605.5 478.5 608.5 477 Q 614 478.5 615.5 476 Z " /><path fill="rgb(108,206,212)" stroke="rgb(108,206,212)" stroke-width="1" opacity="0.08627450980392157" d="M 321 486 L 372 486.5 L 370.5 488 L 322 488 L 321.5 518 L 321 486 Z " /><path fill="rgb(108,206,212)" stroke="rgb(108,206,212)" stroke-width="1" opacity="0.08627450980392157" d="M 677 494 L 679 494.5 L 679 537.5 L 677 538.5 L 677 494 Z " /><path fill="rgb(108,206,212)" stroke="rgb(108,206,212)" stroke-width="1" opacity="0.08627450980392157" d="M 683 494 L 694 495 L 694 503 L 708.5 503 L 708.5 504 L 692 504 L 692 496 L 683.5 496 L 683 494 Z " /><path fill="rgb(108,206,212)" stroke="rgb(108,206,212)" stroke-width="1" opacity="0.08627450980392157" d="M 555 512 L 557 512.5 L 557 529 L 555 528.5 L 555 512 Z " /><path fill="rgb(108,206,212)" stroke="rgb(108,206,212)" stroke-width="1" opacity="0.08627450980392157" d="M 615.5 519 L 617 520.5 L 617 529 L 615 528.5 L 615.5 519 Z " /><path fill="rgb(108,206,212)" stroke="rgb(108,206,212)" stroke-width="1" opacity="0.08627450980392157" d="M 493.5 528 L 495 528.5 L 493.5 530 L 486 530 L 485.5 533 L 485 529 L 492.5 529 L 493.5 528 Z " /><path fill="rgb(108,206,212)" stroke="rgb(108,206,212)" stroke-width="1" opacity="0.08627450980392157" d="M 398 537 L 405.5 537 L 407 538.5 L 406.5 543 L 406 540 L 399.5 540 L 398 538.5 L 398 537 Z " /><path fill="rgb(149,108,79)" stroke="rgb(149,108,79)" stroke-width="1" opacity="0.996078431372549" d="M 222 207 L 256.5 207 L 257 207.5 L 257 214 L 264 214 L 264 221 L 250 221 L 250 228 L 243 228 L 243 235 L 236 235 L 236 249 L 229.5 249 L 229 249.5 L 229 277 L 222 277 L 222 284 L 208 284 L 208 242.5 L 207.5 242 L 201 242 L 201 228 L 208 228 L 208 221 L 215 221 L 215 214 L 222 214 L 222 207 Z " /><path fill="rgb(149,108,79)" stroke="rgb(149,108,79)" stroke-width="1" opacity="0.996078431372549" d="M 366.5 229 L 367 312.5 L 366 312.5 L 366.5 229 Z " /><path fill="rgb(149,108,79)" stroke="rgb(149,108,79)" stroke-width="1" opacity="0.996078431372549" d="M 435.5 229 L 436 346.5 L 434 347.5 L 435 346.5 L 435.5 229 Z " /><path fill="rgb(149,108,79)" stroke="rgb(149,108,79)" stroke-width="1" opacity="0.996078431372549" d="M 548.5 229 L 549 235 L 556 235.5 L 549.5 236 Q 546.4 234.4 548.5 229 Z " /><path fill="rgb(149,108,79)" stroke="rgb(149,108,79)" stroke-width="1" opacity="0.996078431372549" d="M 670.5 229 L 671 235 Q 677.1 233.3 679 236.5 L 677.5 236 L 670 236 L 670.5 229 Z " /><path fill="rgb(149,108,79)" stroke="rgb(149,108,79)" stroke-width="1" opacity="0.996078431372549" d="M 304.5 230 L 305 233.5 L 304 233.5 L 304.5 230 Z " /><path fill="rgb(149,108,79)" stroke="rgb(149,108,79)" stroke-width="1" opacity="0.996078431372549" d="M 305.5 235 L 312 235.5 L 305.5 236 L 305.5 235 Z " /><path fill="rgb(149,108,79)" stroke="rgb(149,108,79)" stroke-width="1" opacity="0.996078431372549" d="M 313.5 236 L 314 278.5 Q 312.3 281.8 305.5 280 L 305.5 279 L 312.5 279 L 313 278.5 L 313.5 236 Z " /><path fill="rgb(149,108,79)" stroke="rgb(149,108,79)" stroke-width="1" opacity="0.996078431372549" d="M 678.5 239 L 679 278.5 Q 677.1 281.8 671 280 L 670.5 286 L 670 279 L 677.5 279 L 678 278.5 L 678.5 239 Z " /><path fill="rgb(149,108,79)" stroke="rgb(149,108,79)" stroke-width="1" opacity="0.996078431372549" d="M 512.5 245 L 514 246.5 Q 512.5 252 515 253.5 L 513 252.5 Q 513.5 246.5 512.5 245 Z " /><path fill="rgb(149,108,79)" stroke="rgb(149,108,79)" stroke-width="1" opacity="0.996078431372549" d="M 634.5 245 L 636 246.5 Q 634.5 252 637 253.5 L 635 254 Q 635.7 247.1 634.5 245 Z " /><path fill="rgb(149,108,79)" stroke="rgb(149,108,79)" stroke-width="1" opacity="0.996078431372549" d="M 800.5 249 L 801 346.5 L 799 347.5 L 800 346.5 L 800.5 249 Z " /><path fill="rgb(149,108,79)" stroke="rgb(149,108,79)" stroke-width="1" opacity="0.996078431372549" d="M 253.5 252 L 254 254 L 252 253.5 L 253.5 252 Z " /><path fill="rgb(149,108,79)" stroke="rgb(149,108,79)" stroke-width="1" opacity="0.996078431372549" d="M 488.5 254 L 489 269.5 L 488 269.5 L 488.5 254 Z " /><path fill="rgb(149,108,79)" stroke="rgb(149,108,79)" stroke-width="1" opacity="0.996078431372549" d="M 610.5 254 L 611 269.5 L 610 269.5 L 610.5 254 Z " /><path fill="rgb(149,108,79)" stroke="rgb(149,108,79)" stroke-width="1" opacity="0.996078431372549" d="M 756.5 254 L 757 260.5 L 756 260.5 L 756.5 254 Z " /><path fill="rgb(149,108,79)" stroke="rgb(149,108,79)" stroke-width="1" opacity="0.996078431372549" d="M 740.5 255 L 741 261.5 Q 739.5 264.5 733.5 263 L 733.5 262 L 740 262 L 740.5 255 Z " /><path fill="rgb(149,108,79)" stroke="rgb(149,108,79)" stroke-width="1" opacity="0.996078431372549" d="M 757.5 262 L 765 262.5 L 757.5 263 L 757.5 262 Z " /><path fill="rgb(149,108,79)" stroke="rgb(149,108,79)" stroke-width="1" opacity="0.996078431372549" d="M 252.5 270 Q 254.8 269.3 254 271.5 L 252.5 270 Z " /><path fill="rgb(149,108,79)" stroke="rgb(149,108,79)" stroke-width="1" opacity="0.996078431372549" d="M 549.5 279 L 557 279.5 L 549 280 Q 550.7 286.1 547.5 288 L 548 286.5 Q 546.5 280.5 549.5 279 Z " /><path fill="rgb(149,108,79)" stroke="rgb(149,108,79)" stroke-width="1" opacity="0.996078431372549" d="M 304.5 281 L 305 287.5 L 304 287.5 L 304.5 281 Z " /><path fill="rgb(149,108,79)" stroke="rgb(149,108,79)" stroke-width="1" opacity="0.996078431372549" d="M 739.5 287 L 741 288.5 L 741 295 L 749 295.5 L 741.5 296 L 740 294.5 Q 740.5 288.5 739.5 287 Z " /><path fill="rgb(149,108,79)" stroke="rgb(149,108,79)" stroke-width="1" opacity="0.996078431372549" d="M 296.5 288 L 297 295 L 303 295.5 L 297.5 296 Q 294.1 294.1 296.5 288 Z " /><path fill="rgb(149,108,79)" stroke="rgb(149,108,79)" stroke-width="1" opacity="0.996078431372549" d="M 540.5 288 L 541 295 Q 547.3 293.5 549 297.5 L 548.5 304 L 548 297.5 L 546.5 296 L 540 296 L 540.5 288 Z " /><path fill="rgb(149,108,79)" stroke="rgb(149,108,79)" stroke-width="1" opacity="0.996078431372549" d="M 661.5 289 L 662 295 L 668 295.5 L 662.5 296 Q 659.4 294.4 661.5 289 Z " /><path fill="rgb(149,108,79)" stroke="rgb(149,108,79)" stroke-width="1" opacity="0.996078431372549" d="M 304.5 296 L 305 302.5 L 304 302.5 L 304.5 296 Z " /><path fill="rgb(149,108,79)" stroke="rgb(149,108,79)" stroke-width="1" opacity="0.996078431372549" d="M 670.5 298 L 671 304 L 679 304.5 L 671.5 305 Q 668.4 303.4 670.5 298 Z " /><path fill="rgb(149,108,79)" stroke="rgb(149,108,79)" stroke-width="1" opacity="0.996078431372549" d="M 306.5 304 Q 312.5 302.5 314 305.5 L 314 346.5 L 312.5 348 L 313 346.5 L 313 305.5 Q 312.8 304.3 306.5 305 L 306.5 304 Z " /><path fill="rgb(149,108,79)" stroke="rgb(149,108,79)" stroke-width="1" opacity="0.996078431372549" d="M 550.5 304 L 557 304.5 L 550.5 305 L 550.5 304 Z " /><path fill="rgb(149,108,79)" stroke="rgb(149,108,79)" stroke-width="1" opacity="0.996078431372549" d="M 512.5 305 L 514 306.5 Q 512.5 312 515 313.5 L 513 312.5 Q 513.5 306.5 512.5 305 Z " /><path fill="rgb(149,108,79)" stroke="rgb(149,108,79)" stroke-width="1" opacity="0.996078431372549" d="M 634.5 305 L 636 306.5 Q 634.5 312 637 313.5 L 635 314 Q 635.7 307.1 634.5 305 Z " /><path fill="rgb(149,108,79)" stroke="rgb(149,108,79)" stroke-width="1" opacity="0.996078431372549" d="M 678.5 308 L 679 347.5 L 678 347.5 L 678.5 308 Z " /><path fill="rgb(149,108,79)" stroke="rgb(149,108,79)" stroke-width="1" opacity="0.996078431372549" d="M 253.5 312 L 254 314 L 252 313.5 L 253.5 312 Z " /><path fill="rgb(149,108,79)" stroke="rgb(149,108,79)" stroke-width="1" opacity="0.996078431372549" d="M 374.5 313 Q 377.8 314.9 376 321 L 384 321.5 L 375 322 Q 375.7 315.1 374.5 313 Z " /><path fill="rgb(149,108,79)" stroke="rgb(149,108,79)" stroke-width="1" opacity="0.996078431372549" d="M 488.5 314 L 489 328.5 L 490 329.5 L 488 330 L 488.5 314 Z " /><path fill="rgb(149,108,79)" stroke="rgb(149,108,79)" stroke-width="1" opacity="0.996078431372549" d="M 610.5 314 L 611 328.5 L 612 329.5 L 610 330 L 610.5 314 Z " /><path fill="rgb(149,108,79)" stroke="rgb(149,108,79)" stroke-width="1" opacity="0.996078431372549" d="M 252.5 330 Q 254.8 329.3 254 331.5 L 252.5 330 Z " /><path fill="rgb(149,108,79)" stroke="rgb(149,108,79)" stroke-width="1" opacity="0.996078431372549" d="M 741.5 331 L 741 332.5 Q 742.5 338.5 739.5 340 L 732 339.5 L 740 339 L 740 332.5 L 741.5 331 Z " /><path fill="rgb(149,108,79)" stroke="rgb(149,108,79)" stroke-width="1" opacity="0.996078431372549" d="M 755.5 331 L 757 331.5 L 757 338.5 L 756 338.5 Q 756.5 332.5 755.5 331 Z " /><path fill="rgb(149,108,79)" stroke="rgb(149,108,79)" stroke-width="1" opacity="0.996078431372549" d="M 758.5 339 L 765 339.5 L 758.5 340 L 758.5 339 Z " /><path fill="rgb(149,108,79)" stroke="rgb(149,108,79)" stroke-width="1" opacity="0.996078431372549" d="M 426.5 348 L 427 355.5 L 425.5 357 L 419 357 L 419 363.5 L 417.5 365 L 418 363.5 Q 416.5 357.5 419.5 356 L 426 356 L 426.5 348 Z " /><path fill="rgb(149,108,79)" stroke="rgb(149,108,79)" stroke-width="1" opacity="0.996078431372549" d="M 548.5 348 L 549 355.5 L 547.5 357 L 541 357 L 540.5 363 L 540 357.5 Q 541.9 354.3 548 356 L 548.5 348 Z " /><path fill="rgb(149,108,79)" stroke="rgb(149,108,79)" stroke-width="1" opacity="0.996078431372549" d="M 670.5 348 L 671 353.5 L 670 353.5 L 670.5 348 Z " /><path fill="rgb(149,108,79)" stroke="rgb(149,108,79)" stroke-width="1" opacity="0.996078431372549" d="M 304.5 349 L 305 355.5 Q 303.8 358.3 298.5 357 L 298.5 356 L 304 356 L 304.5 349 Z " /><path fill="rgb(149,108,79)" stroke="rgb(149,108,79)" stroke-width="1" opacity="0.996078431372549" d="M 669.5 355 L 670 357 L 663 356.5 L 669.5 355 Z " /><path fill="rgb(149,108,79)" stroke="rgb(149,108,79)" stroke-width="1" opacity="0.996078431372549" d="M 791.5 355 L 792 357 L 785 356.5 L 791.5 355 Z " /><path fill="rgb(149,108,79)" stroke="rgb(149,108,79)" stroke-width="1" opacity="0.996078431372549" d="M 296.5 357 L 297 363.5 L 295 364.5 L 296.5 357 Z " /><path fill="rgb(149,108,79)" stroke="rgb(149,108,79)" stroke-width="1" opacity="0.996078431372549" d="M 661.5 357 L 662 363.5 L 660 364.5 L 661.5 357 Z " /><path fill="rgb(149,108,79)" stroke="rgb(149,108,79)" stroke-width="1" opacity="0.996078431372549" d="M 783.5 357 L 784 363.5 L 783 363.5 L 783.5 357 Z " /><path fill="rgb(149,108,79)" stroke="rgb(149,108,79)" stroke-width="1" opacity="0.996078431372549" d="M 346.5 400 L 348 406.5 L 346 407 L 346.5 400 Z " /><path fill="rgb(149,108,79)" stroke="rgb(149,108,79)" stroke-width="1" opacity="0.996078431372549" d="M 467.5 400 L 469 406.5 L 467 407 L 467.5 400 Z " /><path fill="rgb(149,108,79)" stroke="rgb(149,108,79)" stroke-width="1" opacity="0.996078431372549" d="M 589.5 400 L 590 406.5 L 589 406.5 L 589.5 400 Z " /><path fill="rgb(149,108,79)" stroke="rgb(149,108,79)" stroke-width="1" opacity="0.996078431372549" d="M 651.5 400 L 652 415 L 659.5 415 L 660 416.5 L 658.5 416 Q 652.5 417.5 651 414.5 L 651.5 400 Z " /><path fill="rgb(149,108,79)" stroke="rgb(149,108,79)" stroke-width="1" opacity="0.996078431372549" d="M 745.5 400 L 747 406.5 L 745 407 L 745.5 400 Z " /><path fill="rgb(149,108,79)" stroke="rgb(149,108,79)" stroke-width="1" opacity="0.996078431372549" d="M 353.5 407 L 355 407.5 L 355 425 L 353 424.5 L 354 423.5 L 354 408.5 L 353.5 407 Z " /><path fill="rgb(149,108,79)" stroke="rgb(149,108,79)" stroke-width="1" opacity="0.996078431372549" d="M 475.5 407 L 477 407.5 L 477 517.5 L 476 517.5 L 476 408.5 L 475.5 407 Z " /><path fill="rgb(149,108,79)" stroke="rgb(149,108,79)" stroke-width="1" opacity="0.996078431372549" d="M 597.5 407 L 598.5 409 L 597.5 407 Z " /><path fill="rgb(149,108,79)" stroke="rgb(149,108,79)" stroke-width="1" opacity="0.996078431372549" d="M 538 416 L 553.5 416 L 555 417.5 L 554.5 425 L 554 417 L 539.5 417 L 538.5 418 L 538 416 Z " /><path fill="rgb(149,108,79)" stroke="rgb(149,108,79)" stroke-width="1" opacity="0.996078431372549" d="M 667.5 424 L 669 425.5 L 669 432 L 676 432.5 L 668 433 Q 668.7 426.1 667.5 424 Z " /><path fill="rgb(149,108,79)" stroke="rgb(149,108,79)" stroke-width="1" opacity="0.996078431372549" d="M 417.5 425 L 417 426.5 Q 418.5 432.5 415.5 434 L 409 433.5 L 416 433 L 416 426.5 L 417.5 425 Z " /><path fill="rgb(149,108,79)" stroke="rgb(149,108,79)" stroke-width="1" opacity="0.996078431372549" d="M 529.5 425 L 530 448.5 L 531 449.5 L 529 450 L 529.5 425 Z " /><path fill="rgb(149,108,79)" stroke="rgb(149,108,79)" stroke-width="1" opacity="0.996078431372549" d="M 433.5 433 L 440 433.5 L 433.5 434 L 433.5 433 Z " /><path fill="rgb(149,108,79)" stroke="rgb(149,108,79)" stroke-width="1" opacity="0.996078431372549" d="M 407.5 435 L 408 489.5 L 407 489.5 L 407.5 435 Z " /><path fill="rgb(149,108,79)" stroke="rgb(149,108,79)" stroke-width="1" opacity="0.996078431372549" d="M 346.5 451 L 347 458 L 354 458.5 L 347.5 459 Q 344.1 457.1 346.5 451 Z " /><path fill="rgb(149,108,79)" stroke="rgb(149,108,79)" stroke-width="1" opacity="0.996078431372549" d="M 538.5 457 L 546 458.5 L 538 459 L 538.5 457 Z " /><path fill="rgb(149,108,79)" stroke="rgb(149,108,79)" stroke-width="1" opacity="0.996078431372549" d="M 161 458 L 251 458 L 251 473 L 259.5 473 L 260 473.5 L 260 525.5 L 261.5 527 Q 267.5 525.5 269 528.5 Q 268.3 534.8 269.5 535 L 294 535 L 294 528.5 L 295.5 527 L 302.5 527 L 303 526.5 L 303 503 L 311 503 L 311 518 L 356 518 L 356 533 L 371 533 L 371 548 L 386 548 L 386 558 L 391 558 L 391 553 L 400.5 553 L 401 550 L 397 550 L 397 543 L 438.5 543 L 439 542.5 L 439 536 L 404 535.5 L 446 535 L 446 529 L 460 529 L 460 536 L 487.5 536 L 488 536.5 L 488 543 L 453.5 543 L 453 543.5 L 453 550 L 439 550 L 439 557 L 425 557 L 425 550 L 421 550 L 420.5 553 L 406 553 L 406 563 L 401 563 L 401 568 Q 395.8 565.9 397 570.5 L 396 573 L 390 573 L 390 578 L 397 578 L 397 584.5 L 397.5 585 L 418 585 L 418 592 L 425 592 L 425 599 L 432 599 L 432 606 L 416.5 606 L 415.5 608 L 101 608 L 101 593 L 71 593 L 71 578 L 86 578 L 86 563 L 101 563 L 101 548 L 116 548 L 116 518.5 L 116.5 518 L 131 518 L 131 488 L 146 488 L 146 473 L 161 473 L 161 458 Z M 372 592 L 372 593 L 397 593 L 372 592 Z " /><path fill="rgb(149,108,79)" stroke="rgb(149,108,79)" stroke-width="1" opacity="0.996078431372549" d="M 354.5 460 L 355 475.5 L 354 475.5 L 354.5 460 Z " /><path fill="rgb(149,108,79)" stroke="rgb(149,108,79)" stroke-width="1" opacity="0.996078431372549" d="M 591.5 467 L 598 467.5 L 591.5 468 L 591.5 467 Z " /><path fill="rgb(149,108,79)" stroke="rgb(149,108,79)" stroke-width="1" opacity="0.996078431372549" d="M 589.5 468 L 590 474.5 L 589 474.5 L 589.5 468 Z " /><path fill="rgb(149,108,79)" stroke="rgb(149,108,79)" stroke-width="1" opacity="0.996078431372549" d="M 303 476 L 353 476.5 L 304.5 477 L 303.5 478 L 303 476 Z " /><path fill="rgb(149,108,79)" stroke="rgb(149,108,79)" stroke-width="1" opacity="0.996078431372549" d="M 581.5 476 L 588 476.5 L 581.5 477 L 581.5 476 Z " /><path fill="rgb(149,108,79)" stroke="rgb(149,108,79)" stroke-width="1" opacity="0.996078431372549" d="M 660.5 476 Q 666.5 474.5 668 477.5 Q 666.5 483 669 484.5 L 667 483.5 Q 670.3 473.8 660.5 477 L 660.5 476 Z " /><path fill="rgb(149,108,79)" stroke="rgb(149,108,79)" stroke-width="1" opacity="0.996078431372549" d="M 703.5 476 Q 709.5 474.5 711 477.5 L 710.5 495 L 710 477 L 703.5 477 L 703.5 476 Z " /><path fill="rgb(149,108,79)" stroke="rgb(149,108,79)" stroke-width="1" opacity="0.996078431372549" d="M 702.5 483 L 703 485 L 701 484.5 L 702.5 483 Z " /><path fill="rgb(149,108,79)" stroke="rgb(149,108,79)" stroke-width="1" opacity="0.996078431372549" d="M 588.5 484 L 590 485.5 L 590 492 Q 597.1 490.3 599 494.5 L 596.5 493 L 589 493 L 589 485.5 L 588.5 484 Z " /><path fill="rgb(149,108,79)" stroke="rgb(149,108,79)" stroke-width="1" opacity="0.996078431372549" d="M 545.5 485 L 546 491.5 L 545 491.5 L 545.5 485 Z " /><path fill="rgb(149,108,79)" stroke="rgb(149,108,79)" stroke-width="1" opacity="0.996078431372549" d="M 694.5 485 L 695 491.5 L 694 491.5 L 694.5 485 Z " /><path fill="rgb(149,108,79)" stroke="rgb(149,108,79)" stroke-width="1" opacity="0.996078431372549" d="M 753.5 490 L 754 507.5 L 753 507.5 L 753.5 490 Z " /><path fill="rgb(149,108,79)" stroke="rgb(149,108,79)" stroke-width="1" opacity="0.996078431372549" d="M 408.5 492 L 415 492.5 L 408.5 493 L 408.5 492 Z " /><path fill="rgb(149,108,79)" stroke="rgb(149,108,79)" stroke-width="1" opacity="0.996078431372549" d="M 416.5 493 L 417 500.5 L 416 500.5 L 416.5 493 Z " /><path fill="rgb(149,108,79)" stroke="rgb(149,108,79)" stroke-width="1" opacity="0.996078431372549" d="M 546.5 493 Q 553.3 491.2 555 494.5 L 553.5 494 L 546.5 494 L 546.5 493 Z " /><path fill="rgb(149,108,79)" stroke="rgb(149,108,79)" stroke-width="1" opacity="0.996078431372549" d="M 687.5 493 L 694 493.5 L 687.5 494 L 687.5 493 Z " /><path fill="rgb(149,108,79)" stroke="rgb(149,108,79)" stroke-width="1" opacity="0.996078431372549" d="M 467.5 519 L 468 524.5 L 467 524.5 L 467.5 519 Z " /><path fill="rgb(149,108,79)" stroke="rgb(149,108,79)" stroke-width="1" opacity="0.996078431372549" d="M 597.5 519 L 598 526.5 Q 596.3 529.8 589.5 528 L 589.5 527 L 597 527 L 597.5 519 Z " /><path fill="rgb(149,108,79)" stroke="rgb(149,108,79)" stroke-width="1" opacity="0.996078431372549" d="M 459.5 527 L 467 527.5 L 459.5 528 L 459.5 527 Z " /><path fill="rgb(149,108,79)" stroke="rgb(149,108,79)" stroke-width="1" opacity="0.996078431372549" d="M 529 527 L 536 527.5 L 530 528.5 L 565 529 L 565 536 L 572 536 L 572 529.5 L 572.5 529 L 625 529 L 625 535.5 L 625.5 536 L 651 536 L 651 528.5 L 652.5 527 L 660 527.5 L 652 528.5 L 663 529 L 663 536 L 677 536 L 677 550 L 684 550 L 684 557 L 691 557 L 691 564 L 698 564 L 698 571 L 705 571 L 705 585 L 712 585 L 712 592 L 719 592 L 719 606 L 691 606 L 691 571 L 670 571 L 670 557.5 L 669.5 557 L 663 557 L 663 543 L 656 543 L 656 536 L 651.5 536 L 650.5 537 L 628 537 L 628 543 L 621 543 L 621 557 L 628 557 L 628 578 L 621 578 L 621 571 L 614 571 L 614 550.5 L 613.5 550 L 607 550 L 607 543 L 593 543 L 593 550 L 579 550 L 579 543 L 558.5 543 L 557.5 536 L 530 536 L 530 543 L 523 543 L 523 536 L 495.5 536 L 495 535.5 L 495 529 L 528.5 529 L 529 527 Z " /><path fill="rgb(149,108,79)" stroke="rgb(149,108,79)" stroke-width="1" opacity="0.996078431372549" d="M 516 557 L 523 557 L 523 571 L 516 571 L 516 557 Z " /><path fill="rgb(149,108,79)" stroke="rgb(149,108,79)" stroke-width="1" opacity="0.996078431372549" d="M 467 571 L 481 571 L 481 578 L 467 578 L 467 571 Z " /><path fill="rgb(149,108,79)" stroke="rgb(149,108,79)" stroke-width="1" opacity="0.996078431372549" d="M 495 578 L 502 578 L 502 592 L 495 592 L 495 578 Z " /><path fill="rgb(149,108,79)" stroke="rgb(149,108,79)" stroke-width="1" opacity="0.996078431372549" d="M 523 585 L 530 585 L 530 592 L 523 592 L 523 585 Z " /><path fill="rgb(149,108,79)" stroke="rgb(149,108,79)" stroke-width="1" opacity="0.996078431372549" d="M 453 592 L 467 592 L 467 599 L 453 599 L 453 592 Z " /><path fill="rgb(149,108,79)" stroke="rgb(149,108,79)" stroke-width="1" opacity="0.996078431372549" d="M 600 592 L 614 592 L 614 598.5 L 614.5 599 L 635 599 L 635 606 L 586.5 606 L 586 605.5 L 586 599 L 600 599 L 600 592 Z " /><path fill="rgb(149,108,79)" stroke="rgb(149,108,79)" stroke-width="1" opacity="0.996078431372549" d="M 649 599 L 656 599 L 656 606 L 649 606 L 649 599 Z " /><path fill="rgb(129,194,182)" stroke="rgb(129,194,182)" stroke-width="1" opacity="0.996078431372549" d="M 761 214 L 796 214 L 796 221 L 803 221 L 803 237.5 L 808 238 L 808 245.5 L 809.5 247 L 817 247 L 817 356.5 L 816.5 357 L 808 357 L 808 365 L 801.5 365 L 800 366.5 Q 801.5 372.5 798.5 374 L 785.5 374 L 784 372.5 L 784 357 L 792 357 L 792 349.5 L 793.5 348 Q 799.5 349.5 801 346.5 L 801 249.5 L 796 249 L 796 256 L 789 256 L 789 263 L 775 263 L 775 221.5 L 774.5 221 L 761 221 L 761 214 Z " /><path fill="rgb(129,194,182)" stroke="rgb(129,194,182)" stroke-width="1" opacity="0.996078431372549" d="M 817 214 L 824 214 L 824 221 L 831 221 L 831 228 L 824 228 L 824 235 L 817 235 L 817 228 L 810 228 L 810 221 L 817 221 L 817 214 Z " /><path fill="rgb(129,194,182)" stroke="rgb(129,194,182)" stroke-width="1" opacity="0.996078431372549" d="M 305.5 229 L 306.5 230 L 313 230 L 312.5 236 L 311.5 235 L 305 235 L 305.5 229 Z " /><path fill="rgb(129,194,182)" stroke="rgb(129,194,182)" stroke-width="1" opacity="0.996078431372549" d="M 549.5 229 L 556 230 L 557 235.5 L 555.5 235 Q 545.5 238 549.5 229 Z " /><path fill="rgb(129,194,182)" stroke="rgb(129,194,182)" stroke-width="1" opacity="0.996078431372549" d="M 367 230 L 375 230 L 375 238 L 382.5 238 L 383 238.5 L 383 321 L 376 321 L 376 314.5 L 374.5 313 L 367 313 L 367 230 Z " /><path fill="rgb(129,194,182)" stroke="rgb(129,194,182)" stroke-width="1" opacity="0.996078431372549" d="M 436 230 L 443 230 L 443 238 L 451.5 238 L 452 238.5 L 452 357 L 443 357 L 443 365 L 436.5 365 L 435 366.5 Q 435.6 371.9 434 374 L 368.5 374 Q 367.4 373.9 368 368.5 L 367 366 L 360 365.5 L 417.5 365 L 419 363.5 Q 415.8 353.8 425.5 357 L 427 355.5 L 427 348 L 434.5 348 L 436 346.5 L 436 230 Z " /><path fill="rgb(129,194,182)" stroke="rgb(129,194,182)" stroke-width="1" opacity="0.996078431372549" d="M 671 230 L 678 230 L 678 235 L 671 235 L 671 230 Z " /><path fill="rgb(129,194,182)" stroke="rgb(129,194,182)" stroke-width="1" opacity="0.996078431372549" d="M 314 238 L 321 238 L 321 245.5 L 322.5 247 L 330 247 L 330 287.5 Q 329.8 288.8 323.5 288 L 321 289 L 321 297 L 313 297 L 313 304 L 305 304 L 305 296.5 L 303.5 296 L 297 295 L 297 288 L 305 288 L 305 280 L 312.5 280 L 314 278.5 L 314 238 Z " /><path fill="rgb(129,194,182)" stroke="rgb(129,194,182)" stroke-width="1" opacity="0.996078431372549" d="M 557 238 Q 563.1 236.2 565 239.5 L 565 247 L 573.5 247 L 574 247.5 L 574 288 L 566.5 288 L 565 289.5 Q 566.5 295.5 563.5 297 Q 557.5 295.5 556 298.5 L 556 304 L 549 304 Q 550.7 296.9 546.5 295 L 541 295 L 541 288 Q 547.1 289.7 549 286.5 L 549 280 L 556.5 280 L 557 279.5 L 557 238 Z " /><path fill="rgb(129,194,182)" stroke="rgb(129,194,182)" stroke-width="1" opacity="0.996078431372549" d="M 679 238 L 686 238 L 686 245.5 L 687.5 247 L 695 247 L 695 287.5 Q 694.8 288.8 688.5 288 L 686 289 L 686 297 L 678 297 L 678 304 L 671 304 L 670 296 L 662 295 L 662 288 L 669.5 288 L 670 286.5 L 671 280 Q 677.1 281.8 679 278.5 L 679 238 Z " /><path fill="rgb(129,194,182)" stroke="rgb(129,194,182)" stroke-width="1" opacity="0.996078431372549" d="M 838 242 L 845 242 L 845 249 L 852 249 L 852 256 L 845 256 L 845 263 L 838 263 L 838 256 L 831 256 L 831 249 L 838 249 L 838 242 Z M 838 249 L 838 256 L 845 256 L 845 249 L 838 249 Z " /><path fill="rgb(129,194,182)" stroke="rgb(129,194,182)" stroke-width="1" opacity="0.996078431372549" d="M 255.5 245 L 268.5 245 L 270 246.5 Q 268.2 252.8 271 254.5 L 270 255.5 L 270 262 Q 263.5 260.8 261 264.5 L 261 277.5 L 262 278.5 L 255.5 279 L 254 277.5 L 254 270 L 246.5 270 L 245 268.5 L 245 255.5 L 246.5 254 L 254 254 L 254 246.5 L 255.5 245 Z " /><path fill="rgb(129,194,182)" stroke="rgb(129,194,182)" stroke-width="1" opacity="0.996078431372549" d="M 498.5 245 L 511.5 245 L 513 246.5 L 514 262 Q 507.8 261.1 505 263 L 505 279 L 498.5 279 L 497 277.5 L 497 270 L 489 270 L 489 254 L 497 254 L 497 246.5 L 498.5 245 Z " /><path fill="rgb(129,194,182)" stroke="rgb(129,194,182)" stroke-width="1" opacity="0.996078431372549" d="M 620.5 245 L 633.5 245 L 635 246.5 Q 633.3 252.8 636 254.5 L 635 255.5 L 635 262 Q 628.5 260.8 626 264.5 L 626 277.5 L 627 278.5 L 619 279 L 619 270 L 611.5 270 L 611 269.5 L 611 254 L 619 254 L 619 246.5 L 620.5 245 Z " /><path fill="rgb(129,194,182)" stroke="rgb(129,194,182)" stroke-width="1" opacity="0.996078431372549" d="M 741 254 L 756 254 L 756 260.5 L 757 261.5 L 757 271 L 749.5 271 L 748 272.5 L 748 294.5 L 747.5 295 L 741 295 Q 742.8 288.9 739.5 287 Q 733.5 288.5 732 285.5 L 732 263.5 L 732.5 263 L 739.5 263 L 741 261.5 L 741 254 Z " /><path fill="rgb(129,194,182)" stroke="rgb(129,194,182)" stroke-width="1" opacity="0.996078431372549" d="M 255.5 305 L 268.5 305 L 270 306.5 Q 268.2 312.8 271 314.5 L 270 315.5 L 270 322 Q 262.9 320.2 261 324.5 L 261 337.5 L 262 338.5 L 255.5 339 L 254 337.5 L 254 330 L 246.5 330 L 245 328.5 L 245 315.5 L 246.5 314 L 254 314 L 254 306.5 L 255.5 305 Z " /><path fill="rgb(129,194,182)" stroke="rgb(129,194,182)" stroke-width="1" opacity="0.996078431372549" d="M 498.5 305 L 511.5 305 L 513 306.5 L 514 322 Q 507.8 321.1 505 323 L 505 339 L 498.5 339 L 497 337.5 L 497 330 L 490.5 330 L 489 328.5 L 489 314 L 497 314 L 497 306.5 L 498.5 305 Z " /><path fill="rgb(129,194,182)" stroke="rgb(129,194,182)" stroke-width="1" opacity="0.996078431372549" d="M 620.5 305 L 633.5 305 L 635 306.5 Q 633.3 312.8 636 314.5 L 635 315.5 L 635 322 Q 627.9 320.2 626 324.5 L 626 337.5 L 627 338.5 L 619 339 L 619 330 L 612.5 330 L 611 328.5 L 611 314 L 619 314 L 619 306.5 L 620.5 305 Z " /><path fill="rgb(129,194,182)" stroke="rgb(129,194,182)" stroke-width="1" opacity="0.996078431372549" d="M 557.5 306 Q 558.8 308.3 563.5 307 L 565 308.5 L 565 315 L 573.5 315 L 574 315.5 L 574 357 L 565 357 L 565 363.5 L 563.5 365 Q 557.5 363.5 556 366.5 L 556 373.5 L 555.5 374 L 481 374 L 481 366.5 L 480 365.5 L 540 365 L 541 357 Q 547.1 358.8 549 355.5 L 549 348 L 556.5 348 L 557 347.5 L 557.5 306 Z " /><path fill="rgb(129,194,182)" stroke="rgb(129,194,182)" stroke-width="1" opacity="0.996078431372549" d="M 314 307 L 321 307 L 321 315 L 328.5 315 L 330 316.5 L 330 357 L 321 357 L 321 365 L 314.5 365 L 313 366.5 Q 314.5 372.5 311.5 374 L 238.5 374 L 237 372.5 L 237 365.5 L 237.5 365 L 295.5 365 L 297 363.5 L 297 357 Q 303.1 358.8 305 355.5 L 305 348 L 312.5 348 L 314 346.5 L 314 307 Z " /><path fill="rgb(129,194,182)" stroke="rgb(129,194,182)" stroke-width="1" opacity="0.996078431372549" d="M 679 307 L 686 307 L 686 313.5 L 687.5 315 L 695 315 L 695 356.5 L 694.5 357 L 686 357 L 686 365 L 679.5 365 L 678 366.5 Q 679.5 372.5 676.5 374 L 603.5 374 L 602 372.5 L 602 365.5 L 602.5 365 L 660.5 365 L 662 363.5 L 662 357 L 670 357 L 670 354.5 L 671 348 L 678.5 348 L 679 347.5 L 679 307 Z " /><path fill="rgb(129,194,182)" stroke="rgb(129,194,182)" stroke-width="1" opacity="0.996078431372549" d="M 742.5 331 L 754.5 331 L 756 332.5 Q 754.5 339.5 757.5 339 L 757 340.5 L 757 348 L 750.5 348 L 748 349 L 748 372.5 L 746.5 374 L 733.5 374 L 732 372.5 Q 735.3 362.8 725.5 366 L 725.5 365 Q 731.8 365.8 732 364.5 L 732 340 L 739.5 340 L 741 338.5 Q 739.5 332.5 742.5 331 Z " /><path fill="rgb(129,194,182)" stroke="rgb(129,194,182)" stroke-width="1" opacity="0.996078431372549" d="M 347 401 L 354 401 L 354 407 Q 348.6 408.5 347 405.5 L 347 401 Z " /><path fill="rgb(129,194,182)" stroke="rgb(129,194,182)" stroke-width="1" opacity="0.996078431372549" d="M 468 401 L 476 401 L 476 407 Q 469.9 408.8 468 405.5 L 468 401 Z " /><path fill="rgb(129,194,182)" stroke="rgb(129,194,182)" stroke-width="1" opacity="0.996078431372549" d="M 590 401 L 597 401 L 597 407 L 590 407 L 590 401 Z " /><path fill="rgb(129,194,182)" stroke="rgb(129,194,182)" stroke-width="1" opacity="0.996078431372549" d="M 652 401 L 659 401 L 659 409 L 667 409 L 667 422.5 L 667.5 424 Q 661.5 425.5 660 422.5 L 660 415 L 652 415 L 652 401 Z " /><path fill="rgb(129,194,182)" stroke="rgb(129,194,182)" stroke-width="1" opacity="0.996078431372549" d="M 746 401 L 762 401 L 762 418 L 769.5 418 L 770 418.5 L 770 487 L 789 487 L 789 480.5 L 789.5 480 L 817 480 L 817 487 L 831 487 L 831 494 L 838 494 L 838 501 L 845 501 L 845 515 L 852 515 L 852 522 L 859 522 L 859 529 L 866 529 L 866 536 L 873 536 L 873 543 L 880 543 L 880 557 L 886.5 557 L 887 557.5 L 887 592 L 852.5 592 L 851.5 599 L 796.5 599 L 795.5 606 L 719 606 L 719 592 L 712 592 L 712 585 L 705 585 L 705 571 L 698 571 L 698 564 L 691 564 L 691 557 L 684 557 L 684 550 L 677.5 550 L 677 548 L 684 548 L 684.5 543 L 698 543 L 698 536 L 705 536 L 705 529 L 719 529 L 719 522 L 726 522 L 726 515 L 739.5 515 L 740 514.5 L 740 508 L 754 508 L 754 407 L 747.5 407 L 746 405.5 L 746 401 Z " /><path fill="rgb(129,194,182)" stroke="rgb(129,194,182)" stroke-width="1" opacity="0.996078431372549" d="M 355 409 L 362 409 L 362 415.5 L 363 418 Q 369.1 416.3 371 419.5 L 371 432.5 L 369.5 434 L 320.5 434 L 320 434.5 L 320 441 L 304.5 441 L 303 439.5 L 303 426.5 L 304.5 425 L 355 425 L 355 409 Z " /><path fill="rgb(129,194,182)" stroke="rgb(129,194,182)" stroke-width="1" opacity="0.996078431372549" d="M 477 409 L 484 409 L 484 416.5 Q 485.9 419.8 492 418 L 492 527.5 L 491.5 528 L 484 528 L 484 533 L 494.5 533 L 495.5 536 L 522.5 536 L 523 536.5 L 523 543 L 530 543 L 530 536.5 L 530.5 536 L 558 536 L 558 543 L 578.5 543 L 579 543.5 L 579 550 L 593 550 L 593 543 L 607 543 L 607 550 L 613.5 550 L 614 550.5 L 614 571 L 621 571 L 621 578 L 628 578 L 628 557.5 L 627.5 557 L 621 557 L 621 543 L 628 543 L 628 537.5 L 628.5 537 L 650.5 537 L 656 536 L 656 543 L 663 543 L 663 557 L 670 557 L 670 571 L 691 571 L 691 605.5 L 691.5 606 L 700.5 606 L 701 608 L 416.5 608 L 416 606 L 432 606 L 432 599 L 425 599 L 425 592 L 418 592 L 418 585 L 397 585 L 397 578 L 390 578 L 390 573 L 395.5 573 L 396 571.5 L 397 568 Q 403.4 570.1 401 563 L 406 563 L 406 553 L 420.5 553 L 421 550 L 425 550 L 425 557 L 439 557 L 439 550 L 453 550 L 453 543 L 487.5 543 L 488 542.5 L 488 536 L 460.5 536 Q 459.3 535.8 460 529.5 L 459.5 528 L 466.5 528 L 467 525.5 L 468 519 L 475.5 519 L 477 517.5 L 477 409 Z M 516 557 L 516 571 L 523 571 L 523 557 L 516 557 Z M 467 571 L 467 578 L 481 578 L 481 571 L 467 571 Z M 495 578 L 495 592 L 502 592 L 502 578 L 495 578 Z M 523 585 L 523 592 L 530 592 L 530 585 L 523 585 Z M 453 592 L 453 599 L 467 599 L 467 592 L 453 592 Z M 600 592 L 600 599 L 586 599 L 586 606 L 587 606 L 635 606 L 635 599 L 615 599 L 614 599 L 614 592 L 600 592 Z M 649 599 L 649 606 L 656 606 L 656 599 L 649 599 Z " /><path fill="rgb(129,194,182)" stroke="rgb(129,194,182)" stroke-width="1" opacity="0.996078431372549" d="M 598 409 L 606 409 L 606 416.5 Q 607.9 419.8 614 418 L 614 475.5 Q 613.8 476.8 607.5 476 L 606 477.5 Q 607.5 483.5 604.5 485 Q 598.5 483.5 597 486.5 Q 595.7 491.3 598 492.5 L 596.5 492 Q 586.8 495.3 590 485.5 L 588.5 484 Q 582.5 485.5 581 482.5 L 581 477 L 587.5 477 Q 591.8 475.1 590 468 L 597.5 468 L 598 467.5 L 598 409 Z " /><path fill="rgb(129,194,182)" stroke="rgb(129,194,182)" stroke-width="1" opacity="0.996078431372549" d="M 539.5 417 L 554 417 L 554 424.5 L 554 426.5 L 554 434 L 546.5 434 L 546 434.5 L 546 458 L 539.5 458 Q 536.3 456.1 538 450 L 531.5 450 L 530 448.5 L 530 425.5 L 530.5 425 L 538 425 L 538 418.5 L 539.5 417 Z " /><path fill="rgb(129,194,182)" stroke="rgb(129,194,182)" stroke-width="1" opacity="0.996078431372549" d="M 418.5 425 L 431.5 425 L 433 426.5 L 433 442 L 425.5 442 L 424 443.5 L 424 501 L 417 501 L 417 493.5 L 415.5 493 L 414.5 492 L 408 492 L 408 434.5 L 408.5 434 L 415.5 434 L 417 432.5 Q 415.5 426.5 418.5 425 Z " /><path fill="rgb(129,194,182)" stroke="rgb(129,194,182)" stroke-width="1" opacity="0.996078431372549" d="M 669 426 Q 674.4 424.5 676 427.5 L 676 432 L 669 432 L 669 426 Z " /><path fill="rgb(129,194,182)" stroke="rgb(129,194,182)" stroke-width="1" opacity="0.996078431372549" d="M 677 435 L 684 435 L 684 439.5 L 684.5 441 L 677 441 L 677 435 Z " /><path fill="rgb(129,194,182)" stroke="rgb(129,194,182)" stroke-width="1" opacity="0.996078431372549" d="M 347 452 L 354 452 L 354 458 L 347 458 L 347 452 Z " /><path fill="rgb(129,194,182)" stroke="rgb(129,194,182)" stroke-width="1" opacity="0.996078431372549" d="M 355.5 460 L 362 461 L 362 467.5 L 363.5 469 L 371 469 L 371 483.5 L 369.5 485 L 320 485 L 320 517.5 L 319.5 518 L 311 518 L 311 503 L 303.5 503 L 303 502.5 L 303 478.5 L 304.5 477 L 352.5 477 L 355 476 L 355.5 460 Z " /><path fill="rgb(129,194,182)" stroke="rgb(129,194,182)" stroke-width="1" opacity="0.996078431372549" d="M 660 477 L 667 477 L 667 483.5 L 668.5 485 L 676 485 L 676 535.5 L 675.5 536 L 663 536 L 663 529 L 652.5 529 L 652.5 528 L 659.5 528 L 660 527.5 L 660 477 Z " /><path fill="rgb(129,194,182)" stroke="rgb(129,194,182)" stroke-width="1" opacity="0.996078431372549" d="M 703 477 L 709.5 477 L 710 477.5 L 710 502 L 694 502 L 694 492.5 L 695 491.5 L 695 485 L 703 485 L 703 477 Z " /><path fill="rgb(129,194,182)" stroke="rgb(129,194,182)" stroke-width="1" opacity="0.996078431372549" d="M 539 485 L 545 485 L 545 491.5 L 546 494 L 553.5 494 L 554 494.5 L 554 529 L 530 528.5 L 536 528 L 536 519.5 L 538.5 519 L 538 517.5 L 538 487.5 L 539 485 Z " /><path fill="rgb(129,194,182)" stroke="rgb(129,194,182)" stroke-width="1" opacity="0.996078431372549" d="M 598 495 L 604.5 495 L 606 496.5 Q 604.5 502.5 607.5 504 Q 613.8 503.3 614 504.5 L 614 529 L 589 528.5 L 596.5 528 L 598 526.5 L 598 495 Z " /><path fill="rgb(129,194,182)" stroke="rgb(129,194,182)" stroke-width="1" opacity="0.996078431372549" d="M 565 533 L 572 533 L 572 536 L 565 536 L 565 533 Z " /><path fill="rgb(129,194,182)" stroke="rgb(129,194,182)" stroke-width="1" opacity="0.996078431372549" d="M 400.5 536 L 438.5 536 L 439 536.5 L 439 543 L 408.5 543 L 408 542.5 L 408 537 L 400.5 537 L 400.5 536 Z " /><path fill="rgb(129,194,182)" stroke="rgb(129,194,182)" stroke-width="1" opacity="0.996078431372549" d="M 371.5 592 L 397 592.5 L 371.5 593 L 371.5 592 Z " /><path fill="rgb(109,192,200)" stroke="rgb(109,192,200)" stroke-width="1" opacity="0.5176470588235295" d="M 305.5 228 L 306.5 229 L 314 229 L 313.5 236 L 313 230 L 306.5 230 L 305.5 228 Z " /><path fill="rgb(109,192,200)" stroke="rgb(109,192,200)" stroke-width="1" opacity="0.5176470588235295" d="M 549.5 228 L 550.5 229 L 557 229 L 558 237 Q 564.1 235.3 566 238.5 Q 564.5 244.5 567.5 246 L 574 246.5 L 565 247 L 565 239.5 L 563.5 238 L 557 238 L 557 235.5 L 556 230 Q 549.4 231.5 549.5 228 Z " /><path fill="rgb(109,192,200)" stroke="rgb(109,192,200)" stroke-width="1" opacity="0.5176470588235295" d="M 367.5 229 L 376 229 L 376 237 L 382.5 237 L 384 238.5 L 384 320.5 L 383 320.5 L 383 238.5 L 382.5 238 L 375 238 L 375 230 L 367.5 230 L 367.5 229 Z " /><path fill="rgb(109,192,200)" stroke="rgb(109,192,200)" stroke-width="1" opacity="0.5176470588235295" d="M 436.5 229 L 444 229 L 444 237 L 452.5 237 L 453 237.5 L 453 356.5 L 451.5 358 L 444 358 L 444 365.5 L 442.5 367 L 436 367 L 436 372.5 L 433.5 375 L 368.5 375 Q 364.5 373.3 366 367 L 359.5 367 L 358 365.5 L 359.5 365 L 360.5 366 L 367 366 L 368 374 L 433.5 374 L 434 372.5 Q 436.2 371.3 435 366.5 L 436.5 365 L 443 365 L 443 357 L 451.5 357 L 452 356.5 L 452 238 L 443 238 L 443 230 L 436.5 230 L 436.5 229 Z " /><path fill="rgb(109,192,200)" stroke="rgb(109,192,200)" stroke-width="1" opacity="0.5176470588235295" d="M 671.5 229 L 679 229 L 679 235.5 L 678 235.5 L 678 230 L 671.5 230 L 671.5 229 Z " /><path fill="rgb(109,192,200)" stroke="rgb(109,192,200)" stroke-width="1" opacity="0.5176470588235295" d="M 314.5 237 L 322 237 L 322 244.5 L 323.5 246 L 331 246 L 331 288.5 L 330.5 289 L 323.5 289 L 322 290.5 Q 323.5 296.5 320.5 298 Q 310.8 294.8 314 304.5 Q 315.9 307.8 322 306 L 322 314 L 330.5 314 L 331 314.5 L 331 356.5 L 329.5 358 L 322 358 L 322 365.5 L 320.5 367 Q 310.8 363.8 314 373.5 L 312.5 375 L 237.5 375 L 236 373.5 L 236 365.5 L 237 365.5 Q 235.3 372.3 238.5 374 L 311.5 374 L 313 372.5 Q 311.5 366.5 314.5 365 L 321 365 L 321 357 L 329.5 357 L 330 356.5 L 330 316.5 L 328.5 315 L 321 315 L 321 307 L 314.5 307 L 314 305.5 L 313 304.5 L 313 297 L 321 297 L 321 289.5 L 322.5 289 L 323.5 288 L 330 288 L 330 247.5 L 329.5 247 L 322.5 247 L 321 245.5 L 321 238 L 314.5 238 L 314.5 237 Z " /><path fill="rgb(109,192,200)" stroke="rgb(109,192,200)" stroke-width="1" opacity="0.5176470588235295" d="M 679.5 237 L 687 237 L 687 244.5 L 688.5 246 L 696 246 L 696 288.5 L 695.5 289 L 688.5 289 L 687 290.5 Q 688.5 296.5 685.5 298 L 679 298 L 679 303.5 L 678 303.5 L 678 297 L 686 297 L 686 289.5 L 687.5 289 L 688.5 288 L 695 288 L 695 247.5 L 694.5 247 L 687.5 247 L 686 245.5 L 686 238 L 679.5 238 L 679.5 237 Z " /><path fill="rgb(109,192,200)" stroke="rgb(109,192,200)" stroke-width="1" opacity="0.5176470588235295" d="M 803.5 237 Q 808 236 809 238.5 Q 807.5 244.5 810.5 246 Q 816.5 244.5 818 247.5 L 818 356.5 L 816.5 358 L 809 358 L 809 365.5 Q 807.1 368.8 801 367 L 800 375 L 784.5 375 L 783 373.5 Q 784.8 367.3 782 365.5 L 784 364.5 L 784 372.5 L 785.5 374 L 798.5 374 L 800 372.5 Q 798.5 366.5 801.5 365 L 808 365 L 808 357 L 816.5 357 L 817 356.5 L 817 247 L 809.5 247 L 808 245.5 L 808 238 L 803.5 238 L 803.5 237 Z " /><path fill="rgb(109,192,200)" stroke="rgb(109,192,200)" stroke-width="1" opacity="0.5176470588235295" d="M 271.5 254 L 278 254.5 Q 272.6 253.6 271 256.5 Q 272.5 262.5 269.5 264 L 263 264 L 263 278.5 L 261 277.5 L 261 264.5 L 262.5 263 L 270 262 L 270 255.5 L 271.5 254 Z " /><path fill="rgb(109,192,200)" stroke="rgb(109,192,200)" stroke-width="1" opacity="0.5176470588235295" d="M 514.5 254 L 521 254.5 L 514.5 255 L 514.5 254 Z " /><path fill="rgb(109,192,200)" stroke="rgb(109,192,200)" stroke-width="1" opacity="0.5176470588235295" d="M 636.5 254 L 643 254.5 L 636 255 L 636 264 L 628.5 264 L 628 264.5 L 628 278.5 L 626 277.5 L 626 264.5 L 627.5 263 L 635 262 L 635 255.5 L 636.5 254 Z " /><path fill="rgb(109,192,200)" stroke="rgb(109,192,200)" stroke-width="1" opacity="0.5176470588235295" d="M 507.5 262 Q 515.1 260.5 514 264 L 506 264 L 506 278.5 L 505 278.5 L 505 263.5 L 506.5 263 L 507.5 262 Z " /><path fill="rgb(109,192,200)" stroke="rgb(109,192,200)" stroke-width="1" opacity="0.5176470588235295" d="M 757 263 L 765 263.5 L 758 264 L 758 272 L 750.5 272 L 749 273.5 L 749 293.5 L 749.5 295 L 748 294.5 L 748 272.5 L 749.5 271 L 757 271 L 757 263 Z " /><path fill="rgb(109,192,200)" stroke="rgb(109,192,200)" stroke-width="1" opacity="0.5176470588235295" d="M 566.5 288 L 574 288.5 L 567.5 289 L 566 290.5 Q 567.5 296.5 564.5 298 Q 558.5 296.5 557 299.5 Q 556.4 304.6 559.5 306 Q 564.8 304.8 566 307.5 L 566 314 L 573.5 314 L 573.5 315 L 565 315 L 565 308.5 L 557 305.5 L 556 298.5 L 557.5 297 Q 563.5 298.5 565 295.5 Q 563.5 289.5 566.5 288 Z " /><path fill="rgb(109,192,200)" stroke="rgb(109,192,200)" stroke-width="1" opacity="0.5176470588235295" d="M 679.5 305 L 680.5 306 L 687 306 Q 685.3 312.1 688.5 314 L 695.5 314 L 696 314.5 L 696 356.5 L 694.5 358 Q 688.5 356.5 687 359.5 Q 688.5 365.5 685.5 367 Q 675.8 363.8 679 373.5 L 677.5 375 L 602.5 375 L 601 373.5 L 601 365.5 L 602 365.5 Q 600.3 372.3 603.5 374 L 676.5 374 L 678 372.5 Q 676.5 366.5 679.5 365 L 686 365 L 686 357 L 694.5 357 L 695 356.5 L 695 315 L 687.5 315 L 686 313.5 L 686 307 L 679 307 L 679.5 305 Z " /><path fill="rgb(109,192,200)" stroke="rgb(109,192,200)" stroke-width="1" opacity="0.5176470588235295" d="M 271.5 314 L 278 314.5 Q 272.6 313.6 271 316.5 Q 272.5 322.5 269.5 324 L 263 324 L 263 338.5 L 261 337.5 L 261 324.5 L 263.5 322 Q 273.3 325.3 270 315.5 L 271.5 314 Z " /><path fill="rgb(109,192,200)" stroke="rgb(109,192,200)" stroke-width="1" opacity="0.5176470588235295" d="M 514.5 314 L 521 314.5 L 514.5 315 L 514.5 314 Z " /><path fill="rgb(109,192,200)" stroke="rgb(109,192,200)" stroke-width="1" opacity="0.5176470588235295" d="M 636.5 314 L 643 314.5 L 636 315 L 636 322.5 L 634.5 324 L 628 324 L 628 338.5 L 626 337.5 L 626 324.5 L 628.5 322 Q 638.3 325.3 635 315.5 L 636.5 314 Z " /><path fill="rgb(109,192,200)" stroke="rgb(109,192,200)" stroke-width="1" opacity="0.5176470588235295" d="M 507.5 322 Q 515.1 320.5 514 324 L 506 324 L 506 338.5 L 505 338.5 L 505 323.5 L 506.5 323 L 507.5 322 Z " /><path fill="rgb(109,192,200)" stroke="rgb(109,192,200)" stroke-width="1" opacity="0.5176470588235295" d="M 757 340 L 765 340.5 L 758 341 L 758 349 L 750.5 349 L 749 350.5 L 749 373.5 L 747.5 375 L 732.5 375 L 732 373.5 L 731 367 L 724.5 367 L 723 365.5 L 724.5 365 L 725.5 366 L 732 366 Q 730.3 372.1 733.5 374 L 746.5 374 L 748 372.5 L 748 349.5 L 749.5 349 L 750.5 348 L 757 348 L 757 340 Z " /><path fill="rgb(109,192,200)" stroke="rgb(109,192,200)" stroke-width="1" opacity="0.5176470588235295" d="M 565 357 L 574 357.5 L 566 358 L 566 365.5 L 564.5 366 Q 563.3 368.2 558.5 367 L 557 368.5 Q 558.3 373.8 555.5 375 L 481.5 375 L 479 372.5 L 479.5 365 L 481 366.5 L 481 374 L 555.5 374 L 556 373.5 L 556 366.5 L 557.5 365 Q 563.5 366.5 565 363.5 L 565 357 Z " /><path fill="rgb(109,192,200)" stroke="rgb(109,192,200)" stroke-width="1" opacity="0.5176470588235295" d="M 468.5 399 L 476 400.5 L 468 401 L 468.5 399 Z " /><path fill="rgb(109,192,200)" stroke="rgb(109,192,200)" stroke-width="1" opacity="0.5176470588235295" d="M 347.5 400 L 355 400 L 355 406.5 L 354 406.5 L 354 401 L 347.5 401 L 347.5 400 Z " /><path fill="rgb(109,192,200)" stroke="rgb(109,192,200)" stroke-width="1" opacity="0.5176470588235295" d="M 590.5 400 L 598 400 L 598 405.5 L 599 408 Q 605.1 406.2 607 409.5 L 607 417 L 614.5 417 L 615 418.5 L 616 419.5 L 616 475.5 L 614.5 477 Q 608.5 475.5 607 478.5 Q 608.5 484.5 605.5 486 Q 599.5 484.5 598 487.5 L 599 494 Q 605.1 492.2 607 495.5 Q 605.5 501.5 608.5 503 Q 614.5 501.5 616 504.5 L 616 518.5 L 615 519.5 L 614.5 529 L 614 504 L 607.5 504 L 606 502.5 Q 607.5 496.5 604.5 495 Q 599.3 496.3 598 493.5 L 597 486.5 L 598.5 485 Q 604.5 486.5 606 483.5 Q 604.5 477.5 607.5 476 Q 613.8 476.8 614 475.5 L 614 418 L 607.5 418 L 606 416.5 L 606 409 L 599.5 409 Q 595.5 407.3 597 401 L 590.5 401 L 590.5 400 Z " /><path fill="rgb(109,192,200)" stroke="rgb(109,192,200)" stroke-width="1" opacity="0.5176470588235295" d="M 652.5 400 L 660 400 L 660 408 L 667.5 408 L 669 409.5 L 669 425 Q 675.1 423.3 677 426.5 Q 675.5 432.5 678.5 434 Q 684.5 432.5 686 435.5 L 685.5 441 Q 682.8 439.6 684 435 L 677.5 435 L 677 433.5 Q 674.7 432.3 676 427.5 L 674.5 426 Q 669.3 427.3 668 424.5 L 667 422.5 L 667 409 L 659 409 L 659 401 L 652.5 401 L 652.5 400 Z " /><path fill="rgb(109,192,200)" stroke="rgb(109,192,200)" stroke-width="1" opacity="0.5176470588235295" d="M 746.5 400 L 761.5 400 L 763 401.5 L 763 417 L 770.5 417 L 771 417.5 L 771 486.5 L 770 486.5 L 770 418.5 L 769.5 418 L 762 418 L 762 401 L 746.5 401 L 746.5 400 Z " /><path fill="rgb(109,192,200)" stroke="rgb(109,192,200)" stroke-width="1" opacity="0.5176470588235295" d="M 355.5 408 Q 362.3 406.2 364 409.5 L 364 417 L 371.5 417 L 372 417.5 L 372 433.5 L 370.5 435 L 321 435 L 320.5 441 L 320 434 L 369.5 434 L 371 432.5 L 371 419.5 L 369.5 418 Q 362.5 419.5 363 416.5 L 362 415.5 L 362 409 L 355.5 409 L 355.5 408 Z " /><path fill="rgb(109,192,200)" stroke="rgb(109,192,200)" stroke-width="1" opacity="0.5176470588235295" d="M 477.5 408 Q 483.5 406.5 485 409.5 L 485 417 L 493.5 417 L 494 417.5 L 494 527.5 L 492.5 529 L 485 529 L 484.5 533 L 484 528 L 491.5 528 L 492 527.5 L 492 418 L 485.5 418 L 484 416.5 L 484 409 L 477.5 409 L 477.5 408 Z " /><path fill="rgb(109,192,200)" stroke="rgb(109,192,200)" stroke-width="1" opacity="0.5176470588235295" d="M 555.5 425 L 562 425.5 Q 556.6 424.6 555 427.5 Q 556.5 433.5 553.5 435 Q 547.3 434.3 547 435.5 L 547 457.5 L 546 457.5 L 546 434.5 L 546.5 434 L 554 434 L 554 426.5 L 555.5 425 Z " /><path fill="rgb(109,192,200)" stroke="rgb(109,192,200)" stroke-width="1" opacity="0.5176470588235295" d="M 433 434 L 441 434.5 L 434 435 L 434 443 L 426.5 443 L 425 444.5 L 425 499.5 L 425.5 501 L 424 500.5 L 424 443.5 L 425.5 442 L 433 442 L 433 434 Z " /><path fill="rgb(109,192,200)" stroke="rgb(109,192,200)" stroke-width="1" opacity="0.5176470588235295" d="M 347.5 451 Q 353.5 449.5 355 452.5 Q 353.5 458.5 356.5 460 Q 362.5 458.5 364 461.5 L 364 468 L 372 468 L 372 486 L 321 486 L 321 517.5 L 320 517.5 L 320 485 L 369.5 485 L 371 483.5 L 371 469 L 363.5 469 L 362 467.5 L 362 461 L 356.5 461 Q 352.3 459.1 354 452 L 347.5 452 L 347.5 451 Z " /><path fill="rgb(109,192,200)" stroke="rgb(109,192,200)" stroke-width="1" opacity="0.5176470588235295" d="M 676.5 494 L 677 535.5 L 676 535.5 L 676.5 494 Z " /><path fill="rgb(109,192,200)" stroke="rgb(109,192,200)" stroke-width="1" opacity="0.5176470588235295" d="M 686.5 494 L 694 494.5 L 686.5 495 L 686.5 494 Z " /><path fill="rgb(109,192,200)" stroke="rgb(109,192,200)" stroke-width="1" opacity="0.5176470588235295" d="M 694.5 502 L 709.5 502 L 710 503.5 L 708.5 503 L 694.5 503 L 694.5 502 Z " /><path fill="rgb(109,192,200)" stroke="rgb(109,192,200)" stroke-width="1" opacity="0.5176470588235295" d="M 554 511 L 556 511.5 L 555 512.5 L 554.5 529 L 554 511 Z " /><path fill="rgb(109,192,200)" stroke="rgb(109,192,200)" stroke-width="1" opacity="0.5176470588235295" d="M 406.5 537 Q 409.3 536.4 408 542.5 L 407 542.5 L 406.5 537 Z " /></svg>